<svg xmlns="http://www.w3.org/2000/svg" width="75" height="81" viewBox="0 0 1000 1080">
  <defs>
    <style>
      .cls-1 {
        fill: #050404;
        fill-rule: evenodd;
      }
    </style>
  </defs>
  <path id="Color_Fill_1" data-name="Color Fill 1" class="cls-1" d="M616.262,306.3c-4.03-.5-4.839-1.247-7.651-2.536q0,1.275,0,2.549c1.908,2.067,1.982,2.575,2.559,6.368-4.215,4.437-6.78,10.033-11.445,14.037q0.006,3.186.011,6.372l14.018-.024c7.207-12.144,18.181-16.256,27.992-25.535,6.356,1.951,13.715,8.1,14.047,16.543-2.831,2.852-6.235,7.428-7.627,11.482l1.274,0c8.668,13,16.5,4.13,28.056,11.421,5.937,3.747,7.232,12.668,12.774,17.819a24.968,24.968,0,0,0-2.54,5.1l2.549,0c3.16-2.312,8.762-4.079,12.735-5.119-0.252-7.705.822-13.18,6.345-15.3,1.8-1.227,4.17-1.251,7.644-1.287,5.759,4.649,12.425,6.419,16.589,12.715l-2.549,0c-3.389-5.179-8.944-8-16.582-8.893q-1.908,1.916-3.817,3.83c-4.858,6.162-.963,15.7,1.312,21.662,8.083,21.176,17.834,32.729,31.939,47.1,3.951,0.1,5.129.743,6.372-.011,4.9-1.521,5.916-2.828,6.357-8.931,2.6-4.41-1.133-9.852,1.25-14.021,0.641,7.706,1.525,16.739.042,24.213-2.07,1.282-4.208,4.35-6.364,5.109-4.272,1.5-5.036-1.305-7.646.013,10.053,10.821,12.713,28.879,23.006,39.466-1.578,4.24-3.171,3.342-2.538,6.376l0,1.274c35.206-8.751,68.929-23.091,113.4-10.388,9.48,2.707,25.292,2.164,28.056,11.421l-16.554,7.674q0-1.273,0-2.548c6.487-.84,10.3-3.918,15.281-6.4-1.3-1.023-.35-0.452-2.551-1.27-8.1-6.387-66.912-18.447-81.574-8.782,5.453-.2,14.51-0.973,17.843,1.244-22.787-.507-55.3,7.95-71.338,15.415q1.279,2.546,2.558,5.093c15.62-7.11,57.213-18.705,84.086-12.888,11.25,2.436,22.528,4.924,35.691,5.037q0,0.637,0,1.274l-2.549,0c-4.393,2.2-37.438-2.485-49.7-2.464-26.86.046-46.287,5.069-64.971,12.854q0,0.637,0,1.275l3.823-.007c2.562-2.414,5.644-3.283,10.189-3.84q0,0.637,0,1.274l-2.549,0c-2.815,2.187-7.423,2.861-10.186,5.115l3.823-.006c9.9-8.682,32.5-9.547,47.129-12.824,10.957-2.456,28.946,3.858,35.683-.061-17.074-1.146-38.764-2.863-54.8,1.368-5.308,1.4-13.968,6.582-19.109,3.855l33.121-7.7c24.848-5.7,50.084,4.3,68.822,3.7q0,0.638,0,1.275l-2.549,0c-4.4,2.612-9.855-1.1-14.016,1.3,6.226,0.406,15.386,1.85,17.852,6.342-0.9,1.97-.164.172,0.007,3.823l1.272-1.277c0.867-.984,1.666-2.847,2.542-3.827,3.587,2.809,8.309,2.88,12.753,5.075a224.822,224.822,0,0,1,31.891,19.061c40.319,29.444,73.038,90.332,58.9,161.744l-1.276-1.272c-0.992-2.449-1.27,2.551-1.27,2.551,6.1,10.452-15.74,45.4-20.3,52.283-27.261,41.142-67.617,74.659-136.23,74.146-0.732-4.51-.117-6.218-2.562-7.642q0.006,3.824.013,7.647c-67.775.36-111.867-38.881-137.77-81.324-5.733-9.4-10.639-22.541-14.075-33.11-1.971-6.062-.375-13.387-5.125-16.558q0,0.637,0,1.275c8.95,12.276,9.695,37.976,3.912,52.242a18.033,18.033,0,0,1-5.1,1.283c-32.36-56.5-23.274-135.137,8.607-183.523,5.7-8.65,10.808-19.576,19.072-25.52l3.825,1.268c5.81-2.97,8.7-9.391,16.547-11.5q0,0.637,0,1.274c-26.433,17.9-43.82,59.139-54.638,93.122-3.406,10.7-2.539,42.139-2.447,59.9l2.549,0q-0.024-14.016-.048-28.036l1.274,0c-0.389,8.915-1.708,23.443,3.869,26.755-6.045-44.343,8.964-76.629,22.76-104.537l1.275,0q0,1.275,0,2.549c-15.883,16.515-18.38,46.037-24.089,72.68-1.741,8.128-.43,23.359,2.6,28.032-2.19-60.628,20.135-119.107,58.379-141.555-2.327-2.764-.53-2.787-3.83-3.816-3.281,4.862-8.763,7.33-12.724,11.491-8.24,8.655-17.356,19.669-22.886,30.624l-1.275,0q0-1.275,0-2.549c8.9-8.738,15.382-21.921,22.884-31.9,3.874-5.152,10.759-6.824,12.72-14.04-2.711-1.852-3.555-3.337-5.108-6.363l-2.549,0c-2.174,3.494-4.6,6.192-8.908,7.662q0-.637,0-1.275l1.275,0,8.9-8.935c-8.446-6.891-12.628-26.67-24.263-29.269-4.18,6-5.365,10-5.061,21.672-4.957,7.911-4.141,19.172-8.874,26.777-8.189,13.156-45.771,37.285-62.39,31.966-2.659,8.829-10.59,4.793-11.441,16.586-10.772,15.173,3.142,31.116,7.718,42.041,2.574,6.143,1.512,14.059,5.131,19.107,3.962,2.539,12.456,1.166,16.573,3.795,5.7,8.533,4.919,45.713-1.181,54.8-4.447,2.914-17.39,1.471-24.211,1.316l-1.276-1.272q0,0.637,0,1.274l1.274,0c0.985,0.867,2.847,1.666,3.828,2.542-4.854,2.922-23.541,15.455-26.729,19.161q-1.9,7.013-3.8,14.025c-5.985,12.2-16.586,23.953-29.261,29.36-17.48,7.458-63.546,6.4-85.38,1.42l-179.7-8.613c-17.931,30.65-58.649,48.13-98.027,57.514C150.3,817.9,80.636,789.723,63.973,766.013c3.142-1.655.869,0.545,2.544-2.553-3.214-5.172-1.8-11.667-5.121-14.01l-1.272,1.277A106.026,106.026,0,0,0,62.7,764.741l-1.274,0c-6.223-9.332-17.709-15.3-21.71-26.725l2.544-2.553c-4.263.278-3.053,2.748-5.1-1.266-7.465-5.966-10.036-17.212-14.064-26.737C14.19,686.4,4.2,654.735,11.48,623.374c3.281-14.136,9.285-27.483,11.4-40.8l-16.564,1.3-6.385-7.635c-0.2-10.933-.61-16.147,1.233-24.215,4.037-2.427,11.075-4.577,15.279-7.672C25.352,532.2,26.5,510.124,40.586,503.534l2.553,2.544-1.272,1.277c-6.933,11.152-16.8,21.287-19.052,36.989l91.751-1.431c12.842-4.231,22.362-17.543,36.922-20.453,3.96,2.827,8.611,2.07,14.025,3.8,9.614,3.07,21.895,7.717,31.876,10.14,14.121,3.428,39.809-1.857,53.519-2.64,13.5-.771,36.98,3.622,45.872-2.627l-39.5.067L256,528.653l2.544-2.553-1.277-1.272-1.274,0c-0.47,2.646-.3,2.453-1.268,3.825-4.591-1.8-21.353,5.075-28.034,1.322,3.142-1.655.869,0.546,2.545-2.553-16-10.2-44.734-19.171-68.833-10.077q-0.018-10.194-.035-20.39c-3.877-5.994-1.486-24.415-1.331-33.131-5.229-.5-15.221-2.265-19.124-5.065l-1.277-1.272,24.213-.041,33.142,5.04,26.777,8.875c8.44,3.65,14.207,10.533,25.507,11.426q0-.638,0-1.274C227.152,471.166,181.486,446.1,145,453.655c-19.077,3.952-41.367,9.619-58.59,17.941-0.808-2.234-.248-1.237-1.279-2.546q0-1.275,0-2.549c19.3-4.849,33.549-15.858,58.592-16.667q-0.654-9.555-1.307-19.113c6.2-4.319,10.661-12.262,17.815-15.323,16.054-6.869,39.775,1.036,52.259,6.283l-0.006-3.823c-5.36-7.66-2.238-28.642,2.49-34.413q0,0.637,0,1.275c2.472,5.778-4.993,16.056-2.5,26.766,2.592,11.151,4.923,24.481,8.979,34.392,7.881,4.638,47.695,27.484,58.658,21.564-21.266-2.293-41.992-15.468-58.662-24.112-1.689-11.9-10.437-28.175-7.718-42.041q3.167-11.474,6.333-22.95l1.274,0c-0.192,7.338.564,12.187,2.577,16.562,5,0.332,5.784-.715,7.65,2.536-5.194,3.408-12.665,12.191-13.985,19.139,4.877,7.157,6.7,19.361,10.241,26.745,12.157,1.473,23.643,7.336,34.425,10.136,12.642,3.283,25.829-8.624,34.4-3.882-8.117.943-13.029,4.535-20.379,6.406q0,0.637,0,1.275l14.018-.024c6.9-5.13,52.308-15.1,63.69-16.676q0,0.638,0,1.275l-2.548,0c-9.259,7.152-35.915,16.121-48.394,19.2l0,1.275,2.548,0c7.057-4.809,16.582-4.726,25.475-7.689,19.03-6.343,40.293-16.028,61.136-19.22q0,0.636,0,1.274l-2.548,0c-13.8,12.445-52.061,20.131-62.387,33.24l1.274,0c6.751-4.625,43.2-12.695,53.5-14.109q0,0.638,0,1.274l-2.548,0c-8.144,7.4-22.561,9.137-29.28,17.891l1.274,0c9.666-9.127,32.571-11.936,47.125-15.372,5.758-1.36,16.217-2.6,20.39-.035-9.768.456-17.263,4.257-24.2,7.687l0,1.275c12.263,1.226,22.712,6.871,28.062,15.244l-2.549,0c-4.309-5.488-8.285-4.3-16.578-6.343-35.386-8.736-49.547,23.018-70.026,37.076q0-1.273,0-2.549l2.545-2.553-1.277-1.272c-7.278,3.626-5.184,6.327-7.626,11.482-10.119,10.68-29.578,23.5-31.79,40.834l1.275,0a21.248,21.248,0,0,1,8.909-6.387q0,1.275,0,2.549c-5.147,3.353-22.158,21.066-24.168,26.8a110.054,110.054,0,0,1,38.244,7.581c5.357,2.188,14.324,9.365,19.129,7.613,6.195-7.751,9.385-17.6,15.249-25.513,4.762-6.432,12.6-9.024,15.261-17.867-4.9.3-7.519,1.469-10.195,0.017l2.549,0c6.2-5.768,15.431-5.362,22.921-10.234,10.829-7.044,23.175-30.1,33.073-35.739,5.686-3.239,12.276-1.92,17.832-5.128,13.105-7.566,21.688-23.289,35.63-30.646q0-.636,0-1.274l-3.823.007c-7.219,5.485-31.4,5.556-38.231.065,11.628,0.3,16.3-2.4,22.927-6.411q0-.638,0-1.274c-12.837-3.529-21.187-16.021-25.535-27.993-2.275-6.265-.021-16.942-5.132-20.381-4.308,3.1-41.367,13.168-44.583,11.546l2.549,0c10.187-7.719,27.8-7.838,36.928-16.63-4.908-2.121-14.791-4.161-19.129-7.613l6.37-1.285q0-.637,0-1.275c-13.715-3.141-27.251-9.621-44.614-6.3-3.63,7.318-8.066,10.949-10.16,20.407l-1.274,0-0.015-8.92a14.792,14.792,0,0,0,2.542-3.828c-10.265-1.425-6.9-10.7-15.317-13.992-3.569-2.409-48.293-12.846-53.542-11.378-5.355,1.5-10.518,6.016-16.554,7.675q0-.638,0-1.274l1.274,0c3.325-3.085,8.3-4.412,11.456-7.665-6.753-2.346-12.787-5.991-19.128-7.614-5.23-1.338-11.669,1.089-15.3-1.248,11.8-1.522,21.713,1.388,31.866,3.768q0-.636,0-1.274l-15.321-16.54c-2.953-1.659-6.524-.81-8.925-2.534,18.445,0.579,26.915,18.268,40.823,25.418-2.352-5.142-4.54-9.436-5.125-16.558l1.274,0c1.942,2.487,2.772,2.826,6.378,3.813a177.7,177.7,0,0,1-1.309-20.388c-9.444-6.259-15.045-17.76-26.8-21.618-4.132,13.035-16.849,19.336-26.716,26.807-10.742,8.133-16.91,22.755-22.878,35.721l-1.274,0q0-1.911-.007-3.823c5.231-5.863,6.822-15.316,11.432-21.683,11.074-15.294,29.34-22.547,39.438-39.573l2.549,0c2.221,3.218,7.061,6.607,10.2,5.08,9.389-3.159,32.2-26.716,39.446-34.476l25.494,3.78c4.981-1.3,12.548-6.078,17.828-7.677l14.015-1.3,6.359-7.657c5.662-4.082,14.141-7.187,21.649-8.958,16.96-4,27.6,6.863,36.974,10.132,7.832,2.731,12.611-5.748,20.383-3.858,2.328,0.566,7.5,4.656,10.2,5.08,0,0,36.79-11.437,36.937-11.532,2.06-2.136,2.922-4.216,3.81-7.653l-20.407-10.16c6.408,0.547,15.127,4.5,19.119,2.516,7.813-10.215,10.859-22.182,21.614-29.347,29.968-19.964,76.838-4.6,87.968,21.514C629.484,266.15,617,285.4,616.262,306.3Zm-2.555-3.819c1.116-7.817,4.523-12.945,6.339-19.126,6.108-20.789-2.282-44.729-12.835-53.5-33.023-27.45-86.514-13.87-95.532,26.924l2.549,0c0.65-6.1,2.893-9.572,5.074-14.027l1.274,0q0,1.275,0,2.549c-2.68,2.68-5.228,9.987-3.8,12.75,11.587,10.471,37.2,16.76,52.29,24.124,5.737,2.8,16.376,9.509,17.856,8.89C593.971,295.375,604.693,301.178,613.707,302.479Zm-49.844-84.023c17.336-.363,35.066,6.206,42.082,16.5l1.277,1.272-2.549,0c-5.556-7.6-17.985-12.43-28.062-15.245C571.605,219.585,567.393,220.831,563.863,218.456Zm-17.835,3.854c2.646,0.469,2.453.3,3.826,1.268-7.946,8.732,2.674,15.755,1.311,21.662-1.4,3.763-1.892,3.395-5.089,5.106l1.277,1.272c5.122,4.8,15.6,9.476,22.958,11.43q0,0.638,0,1.274l-3.823.007c-6.18-5.845-28.586-14.445-38.253-12.678q0,1.273,0,2.548c10.5,2.576,17.642,9.773,28.057,12.7l0,1.274-3.824.007c-5.088-4.721-13.795-7.135-20.407-10.16q0,0.637,0,1.274l1.275,0c4.576,4.291,11.99,7.384,17.858,10.165q0,0.636,0,1.274l-2.548,0c-7.2-6.256-27.864-7.8-30.615-17.789,4.526-4.861,6.174-12.479,10.164-17.858C532.569,229.205,540.754,227.294,546.028,222.31ZM520.572,240.2c1.027,1.3.452,0.348,1.278,2.546l-1.274,0Q520.573,241.47,520.572,240.2Zm90.579,58.466c-6.644-.773-15.162-4.947-19.13-8.888,6.58,0.838,11.053,3.95,16.577,6.343q0-1.274,0-2.549c3.53-5.1,6.069-15.406,7.609-21.677,1.369-5.573-1.226-12.663,1.246-16.569C617.754,274.611,612.092,283.477,611.151,298.661Zm-85.419-21.519c0.479,2.645.313,2.452,1.281,3.821,3.832,2.359,9.058,1.088,11.478,5.078l-1.274,0c-2.541-1.7-8.295-1.392-12.746-1.252-1.629-5.8-4.057-5.475-11.478-5.078q0,0.636,0,1.274c4.161,2.636,9.953,7.4,12.763,11.448l-2.548,0c-2.312-1.877-5.613-2.978-8.927-3.808q0,0.638,0,1.274c6.971,4.394,20.634,15.653,21.707,25.451,2.1,3.152,1.451,11.34,1.3,16.564l-2.549,0c-2.249-7.481-9.981-17.869-15.331-22.913q0,0.637,0,1.275c-3.327,2.14-4.218,2.765-5.084,7.654,10.789,8.541,21.488,46,23.047,63.679-6.327,1.636-9.838,4.445-17.832,5.128l0-1.274q2.541-5.1,5.08-10.2l-1.274,0q-5.082,8.292-10.167,16.585l10.2-.018c3.579-2.369,13.363-1.46,19.114-1.307-0.083-3.7-.074-6.969,1.259-8.923,0.06,4.908.338,6.51,2.564,8.917q0-.637,0-1.275c3.036-2.358,5.722-5.059,8.907-7.661-6.2-1.042-8.652-1.38-8.936-8.906-1.247-1.928-1.819-7.988-2.566-10.19-2.952,1.028-6.728,5.593-7.64,3.836-4.922-7.077-7.7-24.007-8.977-33.118l1.275,0q0,1.274,0,2.549c12.52,10.124,14.837,31.294,37.011,31.795,3.369-7.066,1.7-13.64,10.171-14.035q0-.638,0-1.274c-2.114-2.195-4.277-4.2-6.383-6.361l11.474,2.529c0.974-5.055,2.1-3.822,3.81-7.653-7.828-5.224-12.406-15.762-21.7-19.078-4.487,16.243-18.594,23.251-7.577,40.792l-2.548,0c-5.019-7.368-14.052-10.6-15.33-21.638,2.683-3.777,5.206-36.359,5.032-38.24l1.275,0q0,0.637,0,1.274c2.218,2.315,3.668,5.864,5.113,8.912,2.234-.807,1.237-0.248,2.546-1.279,3.142-1.655.869,0.546,2.545-2.553-2.073-1.716-1.431-.812-2.556-3.818l1.275,0c4.323,6.718,11.8,15.356,19.148,19.083,0.281-4.8,1.1-5.809,2.533-8.925l-2.553-2.544,2.549,0,2.553,2.544-0.009-5.1-3.829-3.817,2.548,0c2.4,2.262,1.015,2.353,3.826,1.267,5.557-1.709,8.939-4.824,15.281-6.4q0-.637,0-1.275c-6.235-1.545-9.994-4.718-16.578-6.343q0,1.274,0,2.548c-0.223,2.59,1.636,4.3,3.836,7.64-8.848.608-10.98,1.285-21.662,1.311-0.479-2.644-.313-2.452-1.281-3.82-3.079-9.634-35.314-37.5-45.945-39.427l0,1.274,6.378,3.812q0,0.637,0,1.275l-2.549,0c-1.734-1.605-2.256-1.736-5.1-2.54-2.466,6.69-8.751,4.31-15.282,6.4q0,0.637,0,1.274l11.47-.019C511.769,276,520.072,276.812,525.732,277.142Zm44.581-12.82,2.549,0q0,0.638,0,1.274C570.627,264.793,571.626,265.349,570.313,264.322Zm2.551,1.27,2.549,0q0,0.637,0,1.274C573.178,266.063,574.176,266.619,572.864,265.592Zm-53.519,2.641,2.549,0q0,0.637,0,1.275C519.659,268.7,520.658,269.259,519.345,268.233Zm36.957-.064,2.548,0q0,0.637,0,1.274C556.616,268.64,557.614,269.2,556.3,268.169ZM496.6,380.416c-4.209-.134-7.746-0.675-10.2-2.532,3.937,0.114,8.067.165,10.193-1.292,2.2-3.5,1.776-14.986,2.516-19.119l1.274,0c-0.086,5.309.332,9.8,2.571,12.739q0-1.275,0-2.549c1.709-2.145,2.08-4.009,2.536-7.65-6.106-4.782-2.007-13.612-5.135-21.656l-7.659-7.633,3.823-.007,6.383,6.361c3.355,5.189,1.095,14.579,6.4,17.831q-0.015-8.921-.03-17.841c-4.349-7.038.323-22.38,1.224-29.313,0.7-5.379-6.509-13.452-7.677-17.828-1.4-5.24,3.052-6.593,1.26-8.923-2.284-3.179-10.865-8.787-16.58-7.618-3.789.776-8.95,6.82-12.731,7.668-7.292,1.636-11.549-7.146-20.4-5.062-3.324.783-8.708,5.338-14.012,3.847-2.7-.759-6.165-5.191-8.931-6.357-9.759-4.113-27.471-5.719-38.233-1.209-7.091,2.972-11.833,11.129-17.817,14.049-4.01,1.956-40.765,8.99-40.765,8.99,2.234-.808,1.238-0.248,2.547-1.279l-19.12-2.516c-3.077,3.941-8.574,6.207-11.452,10.215-11.909,16.584-13.924,42.794-8.807,66.282,9.139,4.491,27.511,1.934,34.4-6.431-5.4-3.325-13.08-8.791-15.318-15.266l1.274,0c4.47,6.676,14.265,13.009,22.965,15.253q0,1.274,0,2.548c-7.283.948-12.122,4.838-17.828,7.677q0,0.637,0,1.274c6.409-.192,16.283-0.267,20.394,2.514l-2.549,0a44.922,44.922,0,0,1-6.365,3.834q0,1.274,0,2.548l6.371-.01c12.862-10.146,24.983,5.64,35.7,8.859l10.192-1.292q0,1.275.005,2.549c8.554,3.878,21.133-3.362,25.485-1.318,3.335,2.13,1.862,5.766,3.838,8.914q0-.638,0-1.274c3.86-5.491,2.922-15.041,6.337-20.4,0.054,32.42,17.705,78.457,47.288,80.2q0-.636,0-1.274c-3.114-3.278-3.823-7.473-3.847-14.011l1.275,0q0,1.275,0,2.549c10.661,15.159,17.741,33.131,43.385,33.059,4.593-3.06,11.242-2.676,16.558-5.125,8.865-4.085,23.305-16.375,24.165-28.078,1.734-1.867-1.574-.54,0-2.548,5.294-5.205,14.482-6.926,19.094-12.777,2.59-3.309,4.047-9.415,5.074-14.026l-2.549,0q0,1.275,0,2.549c-2.3,2.933-1.618,6.7-3.806,10.2-1.552,2.488-19.423,12-22.914,14.057q0-1.274,0-2.548c3.36-3.684,2.826-11.7,6.345-15.3,4-4.093,6.83.657,8.91-6.387-5.639-6.205-6.557-14.511-17.867-15.261-5.575-3.339-13.351,3.96-17.83,6.4l2.555,3.819-2.549,0-5.106-5.089-16.556,6.4c-0.779-14.132-9.095-19.934-12.8-30.563l1.275,0,3.829,3.817Q496.605,384.238,496.6,380.416Zm62.254-110.977,2.549,0q0,0.637,0,1.274C559.167,269.91,560.165,270.466,558.852,269.439Zm-7.644,1.288,2.549,0q0,0.636,0,1.274C551.523,271.2,552.521,271.753,551.208,270.727Zm10.2-.018,2.549,0q0,0.637,0,1.275C561.718,271.18,562.716,271.736,561.4,270.709ZM553.759,272l2.549,0q0,0.636,0,1.274C554.074,272.467,555.072,273.023,553.759,272Zm10.195-.017,2.549,0q0,0.637,0,1.275C564.268,272.45,565.267,273.006,563.954,271.98Zm-147.823,1.526c11.746,0.329,15.513,6.2,22.953,8.882,7.98,2.875,13.724-6.3,20.386-2.584-7.962.992-11.943,4.314-20.381,5.132C432.854,278.739,423.555,278.837,416.131,273.506Zm150.374-.256,2.549,0q0,0.638,0,1.275C566.819,273.72,567.818,274.276,566.505,273.25Zm-177.121,9.223c3.541,5.941.468,18.516,2.593,25.483,1.333,4.373,6.753,10.642,7.67,14,1.236,4.535-4.691,12.6-2.514,20.4,2.053,7.358,7.851,13.2,10.229,20.372l-2.548,0c-2.878-4.743-7.448-8.277-10.217-12.726C383.526,332.215,386.341,304.864,389.384,282.473Zm23.024,49.661c0.212,6.244,1.382,17.691-1.238,21.666q-2.573-14.649-5.147-29.3-0.036-21.024-.072-42.054l2.549,0c0.717,16.474,10.968,32.224,6.45,45.866l25.487-.043c9.459,5.578,20.931-10.216,31.853-3.878-11.627.249-16.741,4.9-24.2,7.688Zm174.511-44.9,2.549,0q0,0.637,0,1.275C587.233,287.7,588.231,288.259,586.919,287.233Zm2.551,1.27,2.549,0q0,0.637,0,1.275C589.784,288.973,590.782,289.529,589.47,288.5ZM348.681,327.145q1.3,14.652,2.6,29.306l-1.275,0c-5.72-7.584-13.757-11.906-17.878-21.634l-6.417-26.75q0,0.636,0,1.274c-4.63,6.911-.413,19.866-3.78,25.494-0.906-7.048-3.371-9.871-3.853-17.835l1.274,0c0.254,2.966.252,3.6,1.283,5.1,0-11.09,3.995-17.048,6.329-25.5l1.274,0c0.35,21.076,8.132,35.84,15.377,49.674l2.549,0q0-1.275,0-2.549c-5.326-8.019-.413-30.866,1.21-38.233l1.274,0c3.091,28.094,23.368,48.29,43.43,59.821q0-1.275,0-2.549c-6.845-4.422-27.842-41.054-19.209-54.765,0.215,33.786,19.442,58.679,42.174,70.018q0,0.638,0,1.275l-2.549,0c-4.986-3.86-11.916-4.613-17.854-7.616a116.865,116.865,0,0,1-30.624-22.886C358.734,343.248,353.792,328.528,348.681,327.145Zm194.925-30.918c2.9,1.868,3.839,2.673,5.108,6.363l-1.274,0-1.277-1.272C544.934,299.072,544.558,299.182,543.606,296.227Zm-170.758,4.115a5.119,5.119,0,0,1,.011,6.372Q372.853,303.528,372.848,300.342Zm217.922,3.451c-7.515,6.669-11.889,4.806-11.434,20.409l6.385,7.635c2.234-.807,1.237-0.247,2.546-1.278,7.169-1.564,27.766-18.317,16.526-24.241C601.574,303.745,596.875,303.661,590.77,303.793Zm1.279,2.546c6.49,0.37,8.857,2.384,14.024,3.8q0,1.275,0,2.549c-5.9,3.811-12.94,10.219-17.815,15.323-2.237-.8-1.238-0.244-2.551-1.27-2.524-2.782-3.342-7.967-3.845-12.737Zm-275.258,3.019A6.74,6.74,0,0,1,316.8,317Q316.8,313.182,316.791,309.358Zm-19.113,1.307c-4.69,6.874-14.782,9.766-17.81,17.872l1.274,0a22.613,22.613,0,0,0,8.934,7.631q-0.01-5.734-.02-11.47l-2.553-2.544q5.724-5.743,11.45-11.489Zm344.078-.587c-8.371,7.73-20.118,10.9-24.174,22.979l2.549,0c3.181-6.339,8.158-9.247,12.719-14.04,2.6,1.3,6.116,2.419,7.655,5.085-3.778,2.368-7.336,5.572-8.9,10.21l2.549,0c3.171-8.845,13.184-9.738,16.536-17.869C647.219,314.138,646.163,311.628,641.756,310.078Zm10.212,10.177c-5.855,5.839-14.807,9.258-17.811,17.872,3.063,1.469,2.216,2.595,5.1,1.265,6.06-4.017,8.905-10.422,13.992-15.316C652.77,321.432,652.936,321.624,651.968,320.255Zm-353,1.877c3.689,5.5,1.6,32.785-1.211,36.959C296.189,346.559,298.045,333.824,298.972,322.132Zm211.551,3.462c1.012,10.454,8.778,17.017,11.517,28.016l1.274,0-0.006-3.823C517.706,341.263,520.262,330.055,510.523,325.594Zm86.671,8.773q0-2.549-.008-5.1l-1.275,0c-4.543,4.122-10.178,2.839-11.456,7.666a14.714,14.714,0,0,1,2.555,3.819C591.118,337.876,590.706,335.3,597.194,334.367ZM451.915,333.34c2.5,4.422-2.866,18.832-5.056,24.222l1.274,0q0-.637,0-1.275c5.7-6.26,7.208-16.5,12.705-22.96q0,0.637,0,1.275c2.757,3.957,2.424,7.379,6.389,10.184-1.635,4.107-3.1,7.584-3.8,12.75l1.274,0q0-1.273,0-2.548c5.045-4.091,8.568-13.034,11.436-19.135l1.275,0q0,1.274,0,2.548c-5.235,5.676-9.487,18.558-11.424,26.781-13.812.308-18.644,7.227-26.739,12.79q-0.012-6.372-.022-12.744C442.036,361.139,450.55,338.342,451.915,333.34Zm98.13,2.381c1.3,1.023.35,0.452,2.551,1.271C551.293,335.969,552.246,336.54,550.045,335.721Zm47.152-.08c-1.366.96-1.2,0.768-3.821,1.281-2.14,5.319-8.007,4.77-10.18,8.938q-0.627,6.372-1.253,12.746l-10.186,5.114q-0.628,5.1-1.257,10.2l-12.724,11.492-6.372.01c-2.768,2.1-3.3,7.83-6.354,10.206l1.277,1.272c4.074,2.863,12.529,3.964,17.849,5.067q0-.636,0-1.274c-4.722-2.138-11.807-5.41-14.035-10.171,2.334-1.642,2.177-2.511,5.091-3.832l7.659,7.633q-2.554-3.818-5.111-7.637c4.272-2.826,6.632-6.417,11.454-8.94,0.479,2.644.313,2.452,1.281,3.821q1.26-8.285,2.521-16.571c1.834-2.488,8.419-2.367,10.186-5.115q0.625-6.372,1.252-12.746c1.433-2.2,5.834-3.731,7.636-6.385,2.079,1.181,4.581,4.247,6.38,5.087l3.821-1.281c5.567,3.218,9.694,14.281,14.051,19.091,2.234-.807,1.237-0.248,2.546-1.278,1.116-1.652,1.135-3.146,1.264-6.374-2.877-3.621-5.319-9.022-7.668-12.731l2.549,0q0,0.636,0,1.274c7.511,6.05,4.593,17.635,10.234,22.921,1.234,0.318.485,1,1.274,0,1.334-1.977,1.3-5.209,1.259-8.923-2.327-3.4-4.082-10.052-5.121-14.009l1.274,0,1.277,1.272c2.946,6.548,3.652,16.253,6.413,24.2l1.272-1.277c4.389-6.411,1.629-16.925-.039-22.938l1.274,0,0,1.274c4.821,4.8,2.1,11.268,3.847,14.011,2,1.581.651,0.817,2.548,0,1.574-2.345,1.375-7.271,1.255-11.471-4.784-3.178-8.556-9.024-11.493-14Zm47.153,1.194c-1.978,3.048-3.718,3.733-5.084,7.655l1.274,0,11.476,3.8c2.589,1.752,3.8,5.633,6.385,7.635l-1.273,1.277c-2.916,5.526-6.735,6.366-7.622,14.031,2.829,1.491,3.626,3.753,5.109,6.363,2.234-.808,1.237-0.248,2.546-1.279,3.215-1.873,1.967-.564,2.54-5.1-1.659-.7-0.945-0.036-1.276-1.272,7.918-11.567,9.372,5.423,14.018-.024,0.955-1.369.764-1.206,1.267-3.825C665.478,355.734,658.086,341.231,644.35,336.835Zm-332.606,1.842c2.072,1.717,1.43.813,2.555,3.819l-1.274,0q0-.637,0-1.274C312,339.924,312.57,340.875,311.744,338.677ZM314.3,342.5c2.072,1.717,1.431.813,2.556,3.819l-1.275,0q0-.638,0-1.274C314.551,343.743,315.125,344.694,314.3,342.5Zm347.91,4.5c3.007,4.829,8.608,7.918,11.491,12.724q1.282,5.1,2.566,10.191l3.823-.007c1.879-3.26,3.049-4.015,3.808-8.927-1.341-1.83-2-5-2.562-7.642C675.326,349.46,673.041,346.948,662.209,347ZM648.23,369.962c0.573-8.26,4.224-9.048,7.622-14.031-4.684-3.151-5.634-6.488-12.757-7.625q0,0.637,0,1.275c1.583,2.339,1.4,7.265,1.294,11.467-2.369,1.288-4.874,2.631-7.639,3.836l1.278,2.546A43.374,43.374,0,0,0,648.23,369.962Zm-71.4-18.994a16.137,16.137,0,0,0,1.283,5.095c-6.184.389-6.685,0.744-7.635,6.385l1.274,0,8.91-6.387-0.009-5.1Zm16.567-.028c-1.366.96-1.2,0.768-3.821,1.281-2.475,3.936-3.671,4.377-3.8,11.475,4.135,2.6,5.144,3.8,12.75,3.8,2.607-3.834,5.27-3.668,8.91-6.387C601.414,358.891,599.791,353.8,593.4,350.94Zm-2.54,5.1a21.622,21.622,0,0,1,7.648,1.261c-0.78,2.457-.74,5.568-1.264,6.374-1.648,1.121-3.141,1.145-6.369,1.285A12.075,12.075,0,0,1,590.86,356.042Zm127.436-.218c18.866,4.286,40.506,37.115,35.786,61.108l-1.274,0C752.542,386,732.066,373.109,718.3,355.824Zm15.3,5.071c2.9,1.868,3.839,2.673,5.108,6.363l-1.274,0-1.277-1.272C734.925,363.74,734.548,363.85,733.6,360.9Zm-186.05,4.141c-0.276,6.4-.218,10.531,3.844,12.737,2.325,1.971,6.321,3.227,7.651,2.536,4.431-2.748,9.049-6.609,10.173-12.761l-1.274,0C561.192,373.788,554.263,366.54,547.547,365.036Zm-308.394,1.8,2.549,0q0,0.637,0,1.274C239.468,367.307,240.466,367.864,239.153,366.837ZM582.037,413.4c-0.554-5.1-2.146-8.751-3.845-12.737,4.91-3.309,6.921-11.072,11.445-14.038l8.921-.015,6.359-7.657c4.108-2.032,7.2-.253,10.19-2.566l-14.016,1.3q0-.636,0-1.274c1.9-2.073,1.973-2.582,2.538-6.376l-1.274,0c-8.024,7.278-20.761-2.227-21.667-1.237-3.612,4.777-5.12,13.672-7.613,19.128l1.274,0c3.142-5.019,7.354-8.609,10.171-14.035,3.785,2.134,9.707,4.491,11.485,8.9l1.276,1.273c-12.311.388-11.987,8.847-19.091,14.05q0-1.911-.007-3.823c1.023-1.3.452-.35,1.27-2.551l-1.274,0c-2.63,4.189-8.125,10.642-12.722,12.766-2.23-1.632-5.384-2.136-8.925-2.534q0,0.638,0,1.275c6.072,3.942,9.091,10.427,17.861,11.439C576.2,413.463,578.562,413.439,582.037,413.4Zm159.221-43.6c1.027,1.3.453,0.348,1.279,2.546l-1.275,0Q741.261,371.078,741.258,369.8ZM704.3,371.14c4,21.153,14.6,41.646,30.672,50.922-4.934-7.7-12.95-13.619-17.879-21.633C711.892,391.964,710.95,378.349,704.3,371.14Zm-17.839,1.305c-2.229,2.787-4.648,2.916-6.361,6.383,3.621-.414,2.635-1.351,5.1-0.009l-1.274,0a14.714,14.714,0,0,1-3.819,2.555l0,1.275,5.1-1.283c-0.472,3.064-.8,1.961.008,5.1,2.234-.807,1.238-0.248,2.547-1.279,4.322-1.213,3.963-.5,5.089-5.106l-1.277-1.272c-2.886.515-1.379,1.173-3.823,0.007l1.275,0a23.84,23.84,0,0,1,6.365-3.834q0-.636,0-1.274l-2.549,0c-1.729,1.611-2.251,1.744-5.093,2.558C687.749,372.932,689.4,375.138,686.465,372.445Zm-258.693,1.716c5.1,5.943,4.337,13.632,12.772,16.545q0-.636,0-1.274c0.987-1.524,1.515-6.139,2.535-7.651,3.657-3.741,8.724-5.493,14-7.67q0,1.911.007,3.823c-5.23,6.97-2.163,18.031-6.329,25.5l-3.821,1.281c-2.863,2.517-4.582,6.6-6.354,10.206l-1.274,0C437.583,398.856,429.326,391.729,427.772,374.161Zm316.041-.54c1.027,1.3.453,0.349,1.279,2.547l-1.274,0Q743.815,374.9,743.813,373.621Zm-522.485,2.167c1.027,1.3.452,0.349,1.278,2.547l-1.274,0Q221.329,377.064,221.328,375.788Zm319.866,0.728c1.376,2.212,1.325,2.892.009,5.1Zm144-.246,2.549,0q0,0.637,0,1.274C685.511,376.74,686.51,377.3,685.2,376.27ZM425.23,377.989c6.043,9.373,8.025,28.241,12.811,39.483,1.5,3.53,6.844,13.6,10.221,15.275l5.1-1.283q0,1.275,0,2.549c-1.828,2.743-1.4,9.315-1.25,14.02l-1.274,0C438.339,428.065,426.056,410.883,425.23,377.989Zm321.139-.549c1.027,1.3.452,0.349,1.278,2.547l-1.274,0Q746.37,378.714,746.369,377.44ZM621.507,392.946l-0.006-3.823-2.549,0c-1.652-1.115-3.145-1.134-6.374-1.263-0.446-4.514-.565-5.873-3.836-7.64-10.291,8.563-20.059,8.552-26.725,21.71l3.823-.007c14.363-10.217,45.7-5.417,66.259-5.21l0-1.275c-3.378-2.955-3.246-3.733-10.2-3.805C638.1,394.141,627.524,393.1,621.507,392.946Zm63.7-12.853,2.548,0,0,1.274C685.518,380.563,686.516,381.12,685.2,380.093Zm62.443-.106c1.027,1.3.453,0.348,1.279,2.546l-1.274,0Q747.649,381.261,747.647,379.987Zm-48.423,1.357c-4.593,4.18-11.617,5.037-15.275,10.221l1.272-1.277c4.656,0.532,1.337,3.45,3.832,5.091,2.188,1.439,2.783-1.509,5.1-.009l-1.274,0-3.817,3.829,1.275,0c3.51-3.316,9.478-5.523,14.005-7.67l0-1.274-2.548,0c-1.729,1.611-2.251,1.744-5.093,2.557,0.444-5.3.125-2.874-3.834-6.365l2.548,0,5.089-5.106Zm-44.6,1.35c-1.556,2.91-2.082,2.872-2.535,7.651,13.113,7.158,23.666,56.843,37.071,67.478-2.078-4.388-4.208-6.99-5.119-12.735l1.275,0q0,1.274,0,2.548c2.765,2.909,4.6,7.674,6.391,11.459l1.275,0q0-1.913-.007-3.823C688,449.8,686.354,441.8,682.749,434.9c-8.01-15.35-16.574-31.264-24.294-47.11l2.549,0c1.655,3.142-.546.869,2.553,2.544q0-1.273,0-2.548c-0.129-1.768,1.183-1.945-2.556-3.819C659.345,382.843,657.852,382.823,654.623,382.694Zm94.3-.161c1.027,1.3.453,0.349,1.279,2.547l-1.275,0Q748.929,383.807,748.926,382.533Zm-486.8,2.106,2.549,0q0,0.638,0,1.274C262.437,385.109,263.435,385.666,262.122,384.639Zm-5.1,1.283c2.967,0.244,3.6.24,5.1,1.266C259.16,386.944,258.525,386.949,257.027,385.922Zm493.178-.842c1.027,1.3.453,0.348,1.278,2.546l-1.274,0Q750.208,386.355,750.205,385.08Zm-498.273,2.125,2.549,0q0,0.637,0,1.274C252.246,387.675,253.244,388.232,251.932,387.205Zm438.382,0.526,2.549,0L691.591,389C690.71,389.173,689.113,389.074,690.314,387.731Zm61.169-.105c1.028,1.3.453,0.349,1.279,2.547l-1.274,0Q751.485,388.9,751.483,387.626ZM482.6,389.36l2.549,0q0,0.636,0,1.274C482.91,389.83,483.908,390.386,482.6,389.36Zm-21.661,1.311c7.261,3.3,12.658.847,21.664-.037q0,0.638,0,1.275l-1.275,0c-5.775,5.825-24.962,17.749-33.1,20.446q0-.636,0-1.274C453.92,407.105,459,398.2,460.934,390.671Zm291.828-.5c1.027,1.3.453,0.348,1.279,2.546l-1.274,0Q752.764,391.447,752.762,390.173Zm-268.886,3.008,2.549,0-1.272,1.276c-6.18,12.231-19.212,18.541-34.371,21.723q0-.637,0-1.274l1.274,0C461.016,406.071,476.167,403.232,483.876,393.181Zm35.682-.061c-4.071,2.541-13.452,2.306-17.834,3.854q0,0.636,0,1.274l3.823-.007c4.357-2.907,13.46-2.687,20.386-2.583q0,1.274,0,2.549c-1.779,2.857-.688,4.175.013,7.646l3.823-.007c3.55-4.643,10.165-8.481,15.273-11.5q0-.638,0-1.275Zm174.588-.3,2.549,0q0,0.638,0,1.275C694.46,393.292,695.458,393.848,694.146,392.822Zm59.9,1.172c1.027,1.3.453,0.348,1.279,2.546l-1.275,0Q754.046,395.269,754.043,393.994Zm-68.8,7.763,1.263-6.373-1.274,0c-3.625,3.808-5,3.454-5.078,11.478L684,418.326l5.1-.008c2.01-1.963,5.19-3.681,7.637-5.111l-1.276-1.272q0-1.275,0-2.549c-3.621.414-2.636,1.351-5.1,0.009-1.027-1.3-.453-0.349-1.279-2.547,2.067-1.723,1.428-.817,2.543-3.827l-1.277-1.272Zm14.007-6.395a23.846,23.846,0,0,1-6.366,3.834c0.808,2.234.248,1.237,1.279,2.546q0,0.637,0,1.275c2.234-.808,1.238-0.248,2.547-1.279a27.29,27.29,0,0,0,6.367-2.56l-1.276-1.272C700.146,394.764,702.346,397.037,699.248,395.362Zm56.074,1.178c1.376,2.212,1.324,2.892.008,5.1Q755.327,399.09,755.322,396.54Zm-177.1,19.418-2.529,11.474,1.274,0a23.791,23.791,0,0,1,11.457-7.666q0,0.638,0,1.274l-3.817,3.83,1.275,0c9.08-11.831,27.488-19.216,48.393-19.2q0,0.636,0,1.274c-15.048-.1-34.093,7.749-40.751,16.636l1.274,0c4.786-4.586,13.638-7.894,21.649-8.957q0,0.636,0,1.274l-2.549,0c-7.627,5.858-17.533,7.251-22.912,15.332,10.725-.449,15.456.218,24.217,2.507a64.548,64.548,0,0,0,7.664,10.182c2.754,49.144-20.407,45.178-59.8,54.9-6.557,1.618-22.76,7.82-29.3,3.873,11.584-.184,23.4-3.8,33.122-6.428,35.051-9.462,62.513-10.253,49.6-56.157-7.44-4.2-13.646-3.256-22.949-6.333-2.833,4.995-8.067,4.484-12.73,7.668-9.3,6.35-14.125,18.51-19.066,29.343-19.657,2.138-51.588,16.173-70.05,23.058-9.734,3.63-23.065,4.12-30.568,10.248l3.823-.007c8.733-5.975,22.156-5.418,33.118-8.977,15.97-5.185,33.969-12.436,52.225-14.107l0,1.274c-12.288,1.279-24,6.807-34.391,10.254-29.766,9.876-59.364,18.211-89.162,25.639l0,1.275,3.823-.007c6.673-4.545,16.9-3.811,25.476-6.415,15.671-4.756,33.321-11.245,50.953-12.831q0,0.638,0,1.274c-20.78,2.07-42.65,11.8-61.139,17.946-9.046,3.009-20.97,2.444-28.023,7.694,42.116,0.408,77.386-10.555,114.673-11.665-0.813,2.785-1.621,3.738.011,6.372q0.63-3.825,1.261-7.649c7.366-.74,14.357-3.993,20.381-5.132l11.472,1.255,36.945-6.435c7.819-3.3,12.477-10.8,19.09-15.325q0,1.274,0,2.549c-7.377,4.759-11.67,12.989-20.362,16.6-8.374,3.48-19.951,1.508-26.75,6.418a115.742,115.742,0,0,0,44.583-11.546q0,1.275,0,2.549c-2.7,1.862-3.543,3.35-5.086,6.38l3.823-.006c0.981-.871,2.841-1.676,3.818-2.555,11.65-11.706,16.419-26.373,24.146-39.547l-1.275,0c-3.933,6.29-10.329,15.047-16.534,19.144q0-1.273,0-2.549c15.467-16.642,15.046-56.6,16.43-80.313a22.981,22.981,0,0,1-5.1-3.814c4.934,0.179,12.382.663,15.29-1.3-2.858-.988-6.924-1.289-11.472-1.254-11.071-7.235-52.158,3.083-61.16,5.2q0,1.273,0,2.548c2.181,2.227,3.493,5.916,2.562,7.642C582.94,415.794,581.446,415.818,578.218,415.958ZM708.173,397.9c-3.511,3.316-9.479,5.523-14,7.67q0,0.637,0,1.275l5.1-1.283c-0.9,3.15-.921,3.22.011,6.371,2.886-.514,1.38-1.172,3.823-0.006l-1.274,0-3.817,3.83,1.275,0c3.51-3.316,9.478-5.524,14-7.671q0-.636,0-1.274l-2.548,0c-2.129,2.068-4.206,2.937-7.64,3.837q0-.638,0-1.275c5.523-3.621.073-5.392,2.535-7.65l3.817-3.83ZM675.044,400.5a23.862,23.862,0,0,1-6.366,3.834c2,4.724,3.939,10.777,8.943,12.728,1.369,0.955,1.206.764,3.825,1.268q0-1.275,0-2.549c-2.887-3.484-3.551-11.7-2.574-15.288Zm26.765,2.5,2.549,0q0,0.637,0,1.275C702.124,403.474,703.122,404.03,701.809,403Zm-2.546,1.278,2.549,0q0,0.637,0,1.274C699.577,404.752,700.575,405.309,699.263,404.282Zm-211.54,2.91c3.7-.082,6.969-0.073,8.923,1.26-15.043,1.007-31.435,14.313-34.36,28.094l-1.274,0q-0.006-3.184-.011-6.371c2.763-3.47,3.229-9.6,6.35-12.755C472.5,412.218,481.866,411.749,487.723,407.192Zm-104.488,5.276,2.548,0q0,0.637,0,1.274C383.549,412.938,384.547,413.5,383.235,412.468Zm332.629,12.176c-0.651-4.062-1.117-3.719-2.559-6.368l5.093-2.557q0-.637,0-1.274l-2.549,0c-1.729,1.61-2.25,1.744-5.093,2.557,0.04-3.31,1.649-2.9-2.557-5.093a23.836,23.836,0,0,1-6.366,3.834l1.281,3.821,2.549,0c1.728-1.611,2.25-1.744,5.093-2.558q0,0.638,0,1.275l-1.274,0a23.856,23.856,0,0,1-6.365,3.834l6.382,6.361-2.542,3.827a18.008,18.008,0,0,1,5.1-1.283c-0.428,3.087-.414,1.127.009,5.1,3.621-.414,2.635-1.351,5.1-0.009l-1.274,0a14.739,14.739,0,0,1-3.819,2.555l0,1.275,5.1-1.283c-0.472,3.064-.8,1.961.008,5.1,2.234-.808,1.238-0.248,2.547-1.279,3.618-.917,4.445-1.387,6.365-3.834l-2.551-1.27c-1.672-1.179-1.6.447-3.825-1.268l1.275,0a23.84,23.84,0,0,1,6.365-3.834q0-.636,0-1.274l-2.549,0c-1.729,1.611-2.251,1.744-5.093,2.558,0.472-3.064.8-1.961-.009-5.1l-7.642,2.562q0-.637,0-1.274l1.274,0c4.656-4.362,11.143-5.125,16.552-8.949C721.806,420.992,722.064,423.327,715.864,424.644ZM378.139,413.751l5.1-.008q0,0.636,0,1.274l-2.549,0c-9.209,8.29-37.756,14.734-50.942,19.2-5.267,1.785-15.042,4.756-19.111,2.581l2.549,0c11.77-8.942,37.633-14.845,50.942-19.2C369.65,415.79,374.3,416.781,378.139,413.751Zm-31.857,1.329c1.027,1.3.453,0.349,1.279,2.547l-1.274,0Q346.284,416.354,346.282,415.08Zm141.454-.241c5.614-.066,8.209.141,10.2,3.805-9.962,8.113-16.089,20.39-19.055,35.715l-1.274,0c-2.468-17.736,3.107-24.964,10.134-35.7l-3.823.006c-5.48,4.414-10.3,5.047-12.722,12.766l-1.274,0q0-1.912-.007-3.823c4.069-3.889,8.654-7.525,12.724-11.491C485.607,415.868,486.242,415.87,487.736,414.839Zm-317.311,3.09c-11.957,7.534-23.36,5.158-22.9,25.527l2.549,0c-0.127-3.937-.193-8.066,1.257-10.2a24.2,24.2,0,0,1,10.184-6.389q0,0.638,0,1.274c-5.745,3.126-7.824,4.588-7.622,14.032l1.276,1.272c9.155-.3,22.385-0.227,28.043,3.775-12.644-.213-23.54-2.4-34.406,1.333q0,0.637,0,1.274l2.549,0c5.341-3.369,18.586-.09,24.215,1.233,23.062,5.422,39.8,8.7,57.377,17.743,5.286,2.72,19.552,12.67,24.223,6.331-7.191-1.805-36.991-16.609-42.09-21.593,11.128,1.6,41.413,19.727,48.454,16.484-16.878-2.073-29.315-14.731-42.091-21.592-6.606-3.548-16.4-3.965-21.68-8.884,1.985-.254,15.286-3.849,15.286-3.849-6.332-2.184-4.4-7-8.938-10.179C197.835,419.707,183.867,418.078,170.425,417.929Zm527.585-.9c-2.547,4.357-3.8,6.3-3.8,14.025l7.657,6.358c0.592-3.987,3.735-8.116,2.534-8.925-1.769-2.981-4.238-2.628-6.381-5.086,2.327-2,1.777-1.127,2.54-5.1Zm-6.369,1.285a24.958,24.958,0,0,1-5.093,2.558q0,1.274,0,2.548l3.827,2.543,1.277,1.272a27.586,27.586,0,0,1,2.533-8.925ZM543.817,419.84c5.961,8.918-4.281,29.163-6.309,36.968l-1.274,0c0.154-13.016-3.551-20.174-5.15-30.576l1.275,0,5.112,8.911,1.273-1.276C541.967,430.549,543.434,426.044,543.817,419.84ZM685.356,469.3l-0.009-5.1a23.34,23.34,0,0,0-7.648-1.261c-1.44,1.972-1.38,1.076-2.542,3.827l-1.272,1.277c7.419,0.41,1.24,1.431,6.378,3.812l35.68-1.335q0-1.275,0-2.549c-1.025-1.5-.988-2.141-1.283-5.095-3.937.127-8.066,0.193-10.2-1.257,3.938,0.113,8.068.165,10.193-1.292l-7.646.013c0.033-7.064-1.317-10.158-2.575-15.288l-1.274,0,0.015,8.921c0.96,1.365.768,1.2,1.281,3.821l-2.549,0c-0.444-9.161-14.739-35.862-23-36.917l-1.276-1.272,0.006,3.823c7.765,8.422,12.821,23.858,17.9,34.377,4.8,0.173,4.479-.609,6.376,2.538-6.085-.333-14.211-1.222-16.562,2.577,1.611,1.728,1.744,2.25,2.558,5.093,4.179-.156,9.154-0.316,11.471,1.255Zm25.4-49.744,2.549,0q0,0.636,0,1.274C711.072,420.025,712.071,420.581,710.758,419.555Zm-2.546,1.279,2.548,0,0,1.275C708.526,421.3,709.524,421.86,708.212,420.834Zm-333.87,8.216,2.549,0q0,0.637,0,1.274C374.656,429.52,375.655,430.077,374.342,429.05Zm94.307,2.388c1.027,1.3.453,0.348,1.279,2.546l-1.274,0Q468.651,432.712,468.649,431.438Zm240.9,26.35,7.646-.013c1.222-2.253,1.6-2.144,2.54-5.1l-2.55-1.27c-1.672-1.179-1.6.447-3.826-1.268-1.027-1.3-.453-0.348-1.278-2.546,2.066-1.724,1.427-.818,2.542-3.828l-1.277-1.272-5.1.009c0.48-4.659,1.075-5.216-.015-8.921l-3.821,1.281c-0.8,2.237-.244,1.239-1.27,2.551C705.136,445.01,708.978,448.035,709.549,457.788Zm7.605-24.226,2.549,0q0,0.636,0,1.274C717.468,434.032,718.467,434.588,717.154,433.562Zm-22.936,1.314c1.385,3.641,2.281,6.688,5.112,8.911l1.277,1.273-0.009-5.1C697.789,437.846,698.011,436.353,694.218,434.876Zm-386.127,3.208,2.548,0,0,1.274C308.4,438.554,309.4,439.11,308.091,438.084Zm409.07-.7,2.548,0,0,1.274C717.475,437.855,718.473,438.412,717.161,437.385Zm14.02,1.251c-3.511,3.315-9.479,5.523-14,7.67q0,0.636,0,1.274l2.549,0c3.857-3.549,9.489-4.737,12.728-8.943ZM681.483,440c1.027,1.3.453,0.348,1.279,2.546l-1.275,0Q681.486,441.269,681.483,440Zm1.279,2.546c1.027,1.3.452,0.349,1.278,2.547l-1.274,0Q682.763,443.817,682.762,442.541Zm43.332,2.475a23.84,23.84,0,0,1-6.365,3.834l1.276,1.272c1.369,0.956,1.207.764,3.826,1.268,1.648-1.121,3.141-1.145,6.369-1.285q0-.638,0-1.275c-1.027-1.3-.453-0.348-1.279-2.546Zm-542.875,2.2c2.966,0.244,3.6.239,5.1,1.266C185.352,448.24,184.717,448.244,183.219,447.218Zm332.632,13.45c3.95-.114,5.125-0.761,6.372-0.011,5.369,4.841,6.456,3.883,10.205,6.354l-1.274,0c-3.989,4.32-22.067,13.266-30.572,7.7-4.618-1.288-9.022-4.06-11.482-7.627l2.549,0c2.949,2.892,5.548,3.648,11.476,3.8,8.52-8.04,7.143-8.619,6.332-22.949l1.275,0,1.276,1.272C513.913,453.211,515.333,454.818,515.851,460.668Zm-309.69-10.941,2.549,0q0,0.637,0,1.274C206.476,450.2,207.474,450.754,206.161,449.727Zm2.551,1.27,6.374,1.264,0,1.274-3.824.007Zm519.942,0.387c-1.761,1.411-3.658,1.909-6.368,2.559-2.915,4.924-4.915,6.964-5.071,15.3,5.188,5.589,5.628,9.822,16.584,10.167,2.605-2.487,5.484-3.325,7.635-6.385,5.541-6.471,1.7-16.939-5.13-19.107C734.159,452.21,732.3,451.84,728.654,451.384Zm-50.972,1.361c1.3,1.023.35,0.452,2.55,1.27C678.929,452.992,679.882,453.563,677.682,452.745Zm50.976,1.187,2.549,0q0,1.274,0,2.549l-2.548,0Q728.66,455.208,728.658,453.932Zm-113.414,2.743c3.244,1.849,1.437-.279,2.556,3.818-5.624,9.317-2.809,17.853-13.981,21.689q0-.638,0-1.275C611.137,476.222,615.2,468.712,615.244,456.675Zm44.6-.076q0,1.273,0,2.548l3.823-.006q0-1.275,0-2.549Zm62.446,1.167c1.027,1.3.453,0.349,1.279,2.547l-1.275,0Q722.3,459.04,722.293,457.766Zm14.018-.024,2.549,0q0,0.637,0,1.274C736.625,458.212,737.623,458.769,736.311,457.742Zm-8.919,1.29,6.372-.011c2.182,3.469,3.238,3.178,3.839,8.914-3.717,2.349-3.7,3.5-10.189,3.841C724.578,466.827,724.705,463.982,727.392,459.032Zm-602.763,6.127,2.548,0q0,0.636,0,1.274C124.943,465.629,125.941,466.185,124.629,465.159Zm595.126-1.017,2.549,0q0,1.275,0,2.549l-2.549,0Q719.758,465.418,719.755,464.142Zm19.115-.032,2.549,0q0,1.275,0,2.549l-2.549,0Q738.872,465.385,738.87,464.11Zm7.647-.013c1.321,6.256,4.022,11.08,6.4,16.555-7.159,2.251-10.72,7.811-17.824,10.226q0-.637,0-1.275c1.124-1.71,1.85-6.943,2.533-8.924l-5.1.008c-6.686,3.179-12.238-5.438-17.854-7.615q0,0.636,0,1.274c6.512,4.593,12.94,15.625,16.606,22.91,6.259-2.9,21.6-10.12,24.184-16.608C751.717,475.781,750.74,468.455,746.517,464.1Zm-624.435,2.341,2.549,0q0,0.638,0,1.275C122.4,466.908,123.394,467.464,122.082,466.438ZM182,479.079c23.653,2.08,45.976,12.736,62.483,22.832,6.667,4.078,15.754,5.514,19.137,12.711-3.793.5-4.332,0.677-6.368,2.559l1.275,0c1.512,2.632.875,2.4,3.829,3.817,0.118-5.749.427-3.11,3.81-7.653l-17.871-17.81c-17.445-13.052-40.55-28.236-68.866-29.193q0,0.637,0,1.274C181.3,470.273,181.766,474.854,182,479.079ZM81.307,469.056l2.549,0c-0.68,3.324,1.059,2,.006,3.823-12.212,11.319-28.873,16.38-38.179,30.65a22.567,22.567,0,0,1-5.1-2.54l1.274,0C51.747,486.151,68.827,481.136,81.307,469.056ZM114.44,469l6.372-.011q0,0.636,0,1.274l-1.274,0c-12.217,12.6-27.786,18.409-27.962,43.376,3.93,4.923,6.122,10.613,10.221,15.275,1.9-2.124.921-1.3,2.546-1.278l3.826,1.267q0,0.638,0,1.275l-42.054.072c-4.229,2.776-16.385,1.468-22.936,1.313q0-.638,0-1.274C54.589,521.2,61.237,502.684,73.7,493.282c7.631-5.756,16.129-11.683,24.185-16.608C103.132,473.467,110.069,472.987,114.44,469Zm-19.113,1.307,2.549,0q0,0.637,0,1.275C95.641,470.777,96.639,471.333,95.327,470.307Zm-2.546,1.278,2.549,0q0,0.637,0,1.274C93.095,472.055,94.093,472.612,92.78,471.585Zm197.559,18.778c-2.646-.469-2.453-0.3-3.825-1.268-1.027-1.3-.453-0.348-1.279-2.546,3.479-2.026,3.2-1.151,3.812-6.378l-3.823.006c1.025-4.48,1.783-3.448,3.812-6.378a37.644,37.644,0,0,0-14.022-2.525c-2.336,3.724-3.484,3.708-3.806,10.2l19.137,12.711Zm447.268-19.879c0.447,0.383,2.547.662,1.279,2.546C737.465,472.41,734.914,470.773,737.607,470.484Zm-647.373,2.38,2.549,0q0,0.636,0,1.274C90.548,473.334,91.546,473.89,90.234,472.864Zm632.083-1.08,2.549,0q0,0.638,0,1.274C722.631,472.254,723.629,472.811,722.317,471.784Zm-634.63,2.359,2.549,0-1.272,1.277c-5.842,5.68-13.794,9.1-20.366,14.053-16.241,12.229-27.534,33.161-39.42,49.767l2.549,0c4.236-3.743,33.734-2.925,48.421-2.631q0,1.273,0,2.548l-3.823.007c-11.585-.949-36.5,2.464-50.97,2.636q0-.638,0-1.275c3.349-3.784,3.593-9.5,6.348-14.029,5.718-9.406,14.878-18.016,19.072-25.52C57.761,488.469,77.408,483.813,87.687,474.143Zm203.9-.349c2.217,1.369,2.9,1.315,5.1-.008Zm56.072-.095c-1.44,1.972-1.38,1.076-2.542,3.827l1.274,0,2.542-3.828Zm332.608-.569c-7.543,12.938-14.951,31.563-25.415,42.1-4.169,4.2-17.158,10.865-15.271,12.77-6.276,4.257-18.363,7.083-20.363,15.327-2.091,2.931-3,8.791-3.8,12.75l1.275,0c9.459-8.679,25.329-8.591,38.206-14.084,23.138-9.868,36.447-31.079,36.848-63.781-3.055-1.484-4.52-2.418-6.38-5.086Zm49.7,1.19c1.027,1.3.453,0.348,1.279,2.546l-1.274,0Q729.969,475.594,729.967,474.32Zm-434.555,2.017c-1.282.884-5.093,1.649-6.367,2.559,5.444,0.286,9.4.838,11.465-2.568Zm268.891-.46,2.548,0,0,1.274C564.617,476.347,565.615,476.9,564.3,475.877Zm192.428-.328c2.381,10.072,9.01,18.259,12.789,26.739,10.812,24.263,21.534,47.426,33.254,70.034,7.268,14.021,10.706,31.5,20.463,43.293,2.141-2.5,5.061-3.043,8.914-3.838l35.467-126.223-1.274,0c-10.892,30.225-18.011,63.716-27.875,94.351-2.692,8.358-1.968,24.04-8.873,28.051-5.105-1.795-5.2,4.375-7.644,1.287-9.213-10.693-13.24-28.581-19.187-42.021-7.656-17.3-19.258-35.015-26.851-52.2C770.259,502.22,766,485.047,756.731,475.549Zm-368.288,1.9c4.405,0.4,8.791,1.577,11.476,3.8-27.5-.239-37.39,23.248-57.294,30.682q0-.638,0-1.274l1.274,0c6.12-9.5,17.15-18.317,26.72-24.259C376.5,482.748,383.64,482.025,388.443,477.452Zm82.833-.141-1.263,6.374,2.549,0q-0.006-3.186-.011-6.372Zm87.931-.151c2.646,0.47,2.453.3,3.826,1.268C560.387,477.959,560.58,478.124,559.207,477.16Zm-5.1,1.283c2.967,0.244,3.6.24,5.1,1.266C556.245,479.465,555.61,479.47,554.112,478.443ZM291.6,480.166c0.479,2.645.313,2.452,1.281,3.821,1.808,1.221,4.173,1.237,7.648,1.261l1.272-1.276-0.006-3.823Zm258.7-.442c2.646,0.47,2.453.305,3.825,1.268C551.47,480.523,551.663,480.688,550.291,479.724Zm340.257,0.693,2.548,0,0,1.274C890.862,480.887,891.86,481.444,890.548,480.417ZM601.27,482.186l2.549,0q0,0.636,0,1.274C601.584,482.656,602.582,483.212,601.27,482.186Zm22.938-.039c1.028,1.3.453,0.348,1.279,2.546l-1.274,0Q624.21,483.422,624.208,482.147Zm34.413,2.49c-0.982.87-2.841,1.675-3.819,2.555-6.635,6.567-27.607,35.835-30.509,44.655l1.275,0C638.256,515.918,662.739,512.733,665,485.9l-2.549,0C661.077,484.949,661.239,485.14,658.621,484.637ZM91.532,486.88l-1.266,5.1,1.274,0q0-1.274,0-2.548c2.234-.808,1.237-0.248,2.546-1.279Zm198.8-.34c2.883,2.073,13.689,2.021,16.567-.028Zm35.683-.061c-2.645.479-2.452,0.313-3.821,1.281-1.021,1.5-.982,2.144-1.266,5.1l1.277,1.272,1.272-1.277C325.378,490.782,325.45,490.273,326.015,486.479Zm295.651-.5c1.027,1.3.453,0.349,1.279,2.547l-1.274,0Q621.668,487.248,621.666,485.974Zm24.213-.041c-7.937,16.229-21.661,30.22-31.783,44.657-22.3,31.81-43.689,63.084-64.829,95.688-8.923,13.762-33.613,35.958-34.314,54.856l1.274,0q0-.637,0-1.274c11.417-11.388,18.61-27.424,27.966-40.828,7.412-10.616,19.817-21.456,24.155-34.449,3.7,0.068,1.772,1.226,3.823-.006,14.06-24.222,32.149-51.609,49.569-76.547,8.52-12.2,22.82-24.843,27.969-39.553l-1.275,0q0,1.275,0,2.549c-9.882,7.2-12.914,22.279-22.889,29.349q0-1.274,0-2.548c9.259-7.413,13.115-21.093,21.614-29.348C646.35,486.245,646.91,487.242,645.879,485.933ZM310.724,487.78c-1.7,2.427-1.632,1.117-2.54,5.1,8.489,5.788-2.536,2.392,1.292,10.192,0.763,1.556,2.781.6,3.83,3.817-3.186,1.861-2.747.751-3.815,5.1,4.25,1.982,4.153,6.645,6.392,11.458q1.274-.639,2.546-1.279c2.834-6.661,3.463-17.327,5.054-25.5C319.019,493.763,316.271,489.689,310.724,487.78Zm446.027-.762c-6.4,5.666-18.952,6.043-22.915,14.057a20.559,20.559,0,0,1,5.108,6.363l1.273-1.277c5.5-2.561,18.707-9.008,20.363-15.327Zm-463.865,2.067q0,2.549.008,5.1l8.921-.015-0.009-5.1Zm149.1-.255,2.548,0-1.272,1.276c-2.994,3.243-8.66,9.807-12.724,11.491l-16.56,3.851L394.9,528.416l-19.109,3.855c-3.516,1.023-6.475,3.318-10.193,1.292,22.154-2.942,32.84-14.653,42-30.656-3.313-1.95-7.358-5.2-11.48-6.353-4.208-1.176-8.662.543-11.472-1.254l2.549,0C406.83,483,423.986,505.923,441.986,488.83Zm184.782-.316c1.1,2.4.606,0.94,0.007,3.823l-1.275,0Q626.135,490.427,626.768,488.514ZM292.9,495.456q0,1.275,0,2.549c4.175-.133,12.381-0.582,15.288-2.575Zm229.385-.391,2.549,0q0,0.637,0,1.275C522.6,495.535,523.594,496.091,522.281,495.065Zm201.349-.344c14.175,29.249,40.186,57.734,58.765,84.007,8.879,12.557,16.844,32.038,29.38,40.73-17.248-30.105-40.3-57.37-60.041-85.28C743.01,521.842,735.536,503.757,723.63,494.721Zm-206.444,1.627c2.646,0.469,2.453.3,3.825,1.267C518.365,497.146,518.558,497.311,517.186,496.348Zm336.431-.575q0,1.274,0,2.549l1.274,0q0-1.273,0-2.548Zm-341.526,1.858c2.646,0.469,2.453.3,3.825,1.267C513.27,498.429,513.463,498.594,512.091,497.631Zm249.775-.427c-5.335,6.367-16.6,7.466-20.364,15.327l1.274,0a28.132,28.132,0,0,1,12.731-7.668q0,0.638,0,1.274l-1.274,0c-3.341,3.285-8.019,4.389-10.18,8.937l1.274,0c4.893-6.192,14.238-7.943,19.092-14.05l-1.275,0c-2.128,2.067-4.2,2.936-7.639,3.836q0-.638,0-1.274l1.274,0c2.8-2.665,4.7-2.194,6.361-6.382ZM303.1,503.085l-0.006-3.823-7.646.013q0,0.638,0,1.274C298.364,502.105,298.326,502.632,303.1,503.085ZM507,498.914c2.966,0.244,3.6.239,5.1,1.265C509.129,499.935,508.494,499.94,507,498.914Zm387.41,1.887c9.869,9.288,26.124,13.6,36.993,21.6,25.344,18.655,44.244,49.558,54.939,82.739,5.626,17.457,5.96,39.624,5.2,62.435-0.26,7.842-5.5,20.012-2.5,25.492,1.521-18.32,11.593-40.093,6.263-63.729-12.216-54.216-29.819-88.14-70.284-113.3C915.893,510.368,906.654,503.582,894.406,500.8Zm-609.143,2.315q0,1.274,0,2.548l1.274,0q0-1.273,0-2.549Zm16.569,1.246q0,1.273,0,2.548l5.1-.008,1.272-1.277q0-.638,0-1.274Zm225.562-.386c3.227,0.089,4.736.146,6.374,1.264C530.541,505.151,529.032,505.094,527.394,503.976Zm-12.739,2.571c2.966,0.244,3.6.239,5.1,1.265C516.788,507.569,516.153,507.573,514.655,506.547Zm-6.37,1.285,2.549,0q0,0.636,0,1.274C508.6,508.3,509.6,508.858,508.285,507.832Zm344.08,0.687c-21.275-1.026-56.917.093-68.8,11.586,2.2,2.2,1.916,3.544,5.106,5.089,13.361-10.365,39.381-10.268,62.426-10.3q0-1.275,0-2.549C852.053,510.975,851.861,511.137,852.365,508.519Zm-582.383,1q-0.635,1.911-1.268,3.825l1.274,0q0-.637,0-1.275C271.567,510.063,270.8,511.411,269.982,509.514Zm593.856,1.534-1.263,6.374c11.049,0.394,29.1,5.809,34.429,12.685l1.277,1.272-2.549,0c-4.883-4.657-14.457-8.252-22.954-8.881l-1.272,1.276q-0.628,4.461-1.259,8.923c43.894,4.738,75.766,50.889,85.539,91.608,8.034,33.473-7.811,67.344-20.244,85.417-4.972,7.229-10.437,18.418-20.355,20.425q0-.637,0-1.275l1.274,0c11.771-18.31,25.279-32.621,31.762-57.4,14-53.523-17.344-96.792-46.078-117.163-9.462-6.709-19.616-15.373-34.436-16.508q-6.33,23.584-12.663,47.173c43.117,6.7,65.665,77.467,28.219,107-7.448,5.874-17.027,12.207-26.736,15.338-32.587,10.511-62.105-10.87-72.686-27.911-4.97-8-7-18.615-8.971-29.3l-1.274,0c-7.73,5.237-21.7,3.434-29.295,8.97-0.956,1.369-.764,1.207-1.268,3.826,4.886,7.171,4.518,18.129,8.964,25.471,6.078,10.038,15.38,17.391,21.71,26.725l-2.549,0q0-.636,0-1.274c-13.887-4.922-29.734-35.7-31.95-53.469-10.111.552-17.745,4.3-26.751,6.418q0.006,3.186.011,6.372c3.234,4.9,2.915,11.989,5.128,17.832a148.615,148.615,0,0,0,12.787,25.465c24.141,37.97,75.12,67.372,137.725,54.563q0,1.274,0,2.549c-14.984,1.9-38.279,5.6-54.795,1.368-48-12.3-99.566-51.918-103.407-106.87l-7.643,1.287q0,0.637,0,1.274c2.111,3.149,1.126,7.185,2.568,11.465,4,11.89,8.927,25.536,15.353,35.656,28.649,45.114,99.821,87.582,172.135,55.778a151.044,151.044,0,0,0,44.55-30.661c5.3-5.324,11.808-17.62,17.811-17.871q0-.637,0-1.275c-1.767-4.882,5.14-10.661,7.62-15.305,6.813-12.758,10.359-29.244,13.941-44.627,4.547-19.522-1.627-45.415-6.472-58.609-4.209-11.466-8.574-19.718-12.793-29.289l-0.009-5.1C940.619,547.637,901.116,511.946,863.838,511.048Zm-151.646,1.533,2.548,0-1.272,1.276-7.633,7.66C707.314,517.093,709.891,516.019,712.192,512.581Zm-96.847,2.714a173.8,173.8,0,0,1-33.088,26.819c-6.32,3.878-16.846,3.541-19.1,11.5,3.974,1.615,19.813,9.781,20.405,8.886,5.348-3.845,30.771-40.273,33.053-47.208Zm146.551-.25c1.724,2.066.818,1.427,3.827,2.542q0-.637,0-1.274Zm-676.683,2.43L83.945,521.3l2.549,0q0-.636,0-1.274c1.023-1.3.452-.35,1.27-2.551Zm764.618-.032c-21.806-.338-37.352,2.782-53.512,6.464q0,1.911.007,3.823c3.489,3.907,1.888,6.674,8.933,7.631,8.8-6.821,26.854-6.526,42.043-6.444q0-1.274,0-2.549C848.93,524.138,849.433,520.984,849.831,517.443Zm-225.557,2.935c1.1,2.4.605,0.94,0.006,3.823l-1.274,0Q623.641,522.291,624.274,520.378ZM731.32,520.2l2.549,0-1.272,1.277-19.083,19.148C716.566,531.831,726.4,527.531,731.32,520.2Zm129.985-.222-1.257,10.2a16.157,16.157,0,0,1,5.1,1.265q0-1.273,0-2.548c1.934-2.418,2.272-4.579,2.534-8.925Zm-299.473,1.786q0.66,12.741,1.318,25.485l2.549,0c6.721-5.234,15.573-6.92,22.919-11.508,5.679-3.547,10.814-9.058,16.545-12.772q0-.637,0-1.274l-2.549,0C593.158,533.684,577.028,522.506,561.832,521.759Zm209-.357c-3.234,7.156-9.6,7.733-12.719,14.039a14.782,14.782,0,0,1,2.555,3.819c2.234-.808,1.238-0.248,2.547-1.279,5.411-1.476,12.8-5.481,14-11.493l-3.83-3.816C772.075,521.649,773.028,522.22,770.827,521.4Zm-309.656,8.175c0.141,8.509,1.229,13.879.035,20.39-3.6,2.105-4.358,3.334-10.189,3.84-1.654-1.849-5.871-6.089-6.38-5.087-6.043,2.907-11.45,7.64-12.718,15.315l16.591,13.989,21.658-3.86c-0.661-7.981-1.585-17.715-.044-25.487-5.138-1.686-5.22-3.356-5.115-10.186,3.717-2.349,3.7-3.5,10.188-3.841,2.489,3.928,3.686,4.365,3.843,11.463a22.981,22.981,0,0,0-5.091,3.832c2.447,3.471,2.616,9.4,2.575,15.288l1.274,0c16-24.914,44.461-18.107,76.436-15.423q0-1.275,0-2.549c-2.715-4.268-2.055-19.042-2.59-24.209Zm93.017-6.531c-0.17,6.41-.211,16.284,2.584,20.385q-0.018-10.193-.035-20.389Zm67.544,1.159c0.6,2.719,1.213,1.317-1.268,3.825l-1.272,1.277C620.089,526.314,620.493,526.458,621.732,524.205Zm137.631-.235c2.117,1.418,1.365,2.253,2.548,0ZM295.526,542.6l6.369-1.285-0.006-3.823c-34.159.5-68.6,3.94-104.491,4-10.625.018-33.121,3.518-40.782-1.2,7.223-.073,21.775-0.42,26.755-3.869l-34.423-8.862-31.826,19.17-17.841.031c-15.795,3.49-40.264-.806-56.068,2.644C28.127,552.7,10.251,544.278,5,557.118c-1.02,1.5-.982,2.144-1.266,5.1l2.549,0c5.108-3.336,12.295-1.958,19.109-3.856,20.268-5.645,42.067-7.718,70.077-7.766,59.446-.1,128.7-1.469,178.408-1.579-0.067,3.7-1.225,1.772.007,3.823,3.159-4.5,8.645-4.168,16.56-3.851q0,1.273,0,2.549c-0.955,1.369-.764,1.206-1.267,3.825l1.274,0q0-.637,0-1.275A17.76,17.76,0,0,0,295.526,542.6Zm493.151-16.134c-0.9,7.7,7.368,19.5,11.517,28.016l1.273-1.277c1.022-1.3.451-.35,1.27-2.551-4.4-5.533-8.278-15.657-10.235-22.921Zm-170.76,2.84c1.1,2.4.606,0.94,0.007,3.823l-1.275,0Q617.284,531.222,617.917,529.309ZM899.553,530.1c49.167,22.743,89.112,94.353,60.174,163.016-5.1,12.108-10.941,32.188-22.876,37l-1.272,1.276q0-1.273,0-2.548c8.871-6.034,12.678-16.86,17.795-26.793,23.756-46.111,13.712-99.772-12.976-136.334-6.287-8.613-18.038-19.329-26.8-25.442C908.27,536.565,899.71,535.187,899.553,530.1Zm-121.062,1.481c-4.73,4.279-12.368,5.368-15.273,11.5l1.275,0c2.731,8.277,10.068,14.1,14.055,21.64,4.465-1.937,10.618-4.553,12.728-8.943C785.506,549.238,784.543,537.857,778.491,531.583Zm-163.116,1.553c1.1,2.4.606,0.94,0.007,3.823l-1.275,0Q614.742,535.05,615.375,533.136Zm226.865,16.18q1.9-8.286,3.794-16.574l-26.761.046c-4.286,2.813-13.181,3.27-17.833,5.128q3.2,7,6.4,14.007C817.488,549.951,829.456,549.324,842.24,549.316Zm90.451-16.722q0,1.275,0,2.549l1.275,0q0-1.275,0-2.549Zm-570.912,2.25c2.646,0.47,2.453.3,3.826,1.268C362.959,535.642,363.152,535.808,361.779,534.844ZM83.971,536.593c4.934-.2,12.38-0.7,15.295,1.248C94.238,538.625,86.861,541.231,83.971,536.593Zm273.987-.468c2.646,0.469,2.453.3,3.826,1.268C359.138,536.923,359.331,537.088,357.958,536.125Zm486.887,46.32c3.877,0.088,3.5.957,5.1-.009,5.294-7.2,11.723-37.161,13.938-47.175l-6.372.01q0,1.275,0,2.549c-3.657,4.632-3.951,11.269-1.248,15.295-4.134,1.062-1.948-.621-3.819,2.555C848.311,561.56,845.9,574.58,844.845,582.445ZM468.83,537.21a27.392,27.392,0,0,0-1.259,8.923l2.549,0c1.369,0.956,1.206.764,3.825,1.268,1.654-3.084,2.289-3.615,2.533-8.925L475.2,537.2Zm142.731,1.03c1.1,2.4.605,0.94,0.006,3.823l-1.274,0Q610.926,540.154,611.561,538.24Zm-141.452,1.516,3.823-.006a16.154,16.154,0,0,1-1.266,5.1l-2.549,0Q470.114,542.305,470.109,539.756Zm242.131,0.861c1.587,1.994.819,0.649,0,2.549L708.427,547C709.539,543.528,710.6,543.247,712.24,540.617Zm36.956-.063-20.355,20.425c-18.639,25.287-27.667,52.456-27.87,96.9l1.274,0c1.1-.829,4-1.712,5.093-2.558,1.023-1.3.452-.35,1.27-2.551-4.723-7.259.731-26.555,2.492-33.137,5.18-19.359,9.139-34.259,19.033-48.459,6.5-9.337,19.153-16.732,24.167-26.8C751.96,542.735,752.114,541.865,749.2,540.554Zm-480.432,2.1,5.1-.009q0,1.275,0,2.549l-1.274,0c-3.795,2.5-14.371,1.464-20.388,1.309q0-1.274,0-2.548C257.392,544.135,265.649,544.744,268.764,542.649Zm11.469-.019a81.656,81.656,0,0,0,12.744-.022q0,0.636,0,1.274c-1.023,1.3-.452.35-1.27,2.551l-10.195.017Zm328.785-.562c1.1,2.4.606,0.94,0.007,3.823l-1.274,0Q608.384,543.981,609.018,542.068ZM235.633,543.98c7.438,0.085,9.508.488,15.292-.026q0,1.274,0,2.549l-29.311.05q0-.637,0-1.275C226.3,545.45,232.929,545.813,235.633,543.98Zm155.474,1.009c-4.543,4.729-11.138,6.262-17.826,8.951-0.355,12.958-8.525,13.143-13.983,20.414a160.92,160.92,0,0,0-20.329,35.716c5.217,6.7,7.029,15.508,14.053,20.366-2.515-5.054-10.01-15.5-7.681-20.376,2.766-20.241,21-31.755,29.23-47.2l3.825,1.268q0-.637,0-1.274c-3.216-1.859-2.332-1.6-2.56-6.368,7-2.972,12.657-5.439,16.547-11.5Zm214.1,2.183c1.027,1.3.453,0.348,1.279,2.546l-1.275,0Q605.207,548.446,605.2,547.172ZM707.153,547c0.6,2.719,1.213,1.317-1.268,3.825l-1.272,1.276C705.51,549.107,705.914,549.25,707.153,547Zm-194.975,1.607c-17.573.883-29.857,11.433-36.917,23l6.371-.011c7.1-4.676,21.878-5.811,30.572-7.7Q512.191,556.251,512.178,548.605ZM516,548.6q-0.635,1.913-1.268,3.825l1.275,0c4.4-3.159,9.868-2.022,15.29-1.3q0-1.273,0-2.549Zm17.841-.031q0.009,5.1.017,10.2l2.549,0c4.088-3.061,11.289-3.213,15.282-6.4Zm220.464-.377q-8.268,8.3-16.538,16.595c-17.413,23.469-27.651,49.45-27.881,90.528l2.548,0,24.2-7.688c2.979-5.33,3.437-32.2,7.575-42.067,5.764-13.746,22.945-26.378,26.7-37C764.254,563.18,762.362,552,754.306,548.191ZM602.662,551c1.1,2.4.605,0.94,0.006,3.823l-1.274,0Q602.029,552.913,602.662,551Zm228.11-.389c-5.985,3.573-16.5,1.112-21.655,5.134,6.523,7.8,6.117,27.072,19.163,28,1.974-1.908,2.341-.994,3.817-3.829,4.231-5.428,8.675-23.854,7.6-29.324C837.217,551.013,835.684,550.74,830.772,550.61ZM703.339,552.1c1.1,2.4.6,0.94,0.006,3.823l-1.274,0Q702.7,554.015,703.339,552.1Zm-511.017,2.147c-4.979,7.744-13.9,17.907-21.625,22.975q0,0.637,0,1.275l2.549,0c5.873,3.594,13.975,1.821,21.671,3.787,13.9,3.55,27.35,3.532,42.069,8.848q0-1.274,0-2.548c-2.072-1.717-1.43-.813-2.555-3.819l1.275,0c5.4,8.452,20.55,10.7,33.153,11.412,1.446-3.138,2.8-5.153,3.807-8.927,1.735-1.867-1.574-.541,0-2.549,1.359-2.605,6.585-8.123,5.082-8.929-2.8-8.937-10.721-14.157-15.329-21.638Zm415.442-.71c-3.354,5.955-7.809,13.278-12.713,17.863,1.531,4.7,6.429,10.157,10.216,12.726,0.249-10.594,3.695-18.431,5.05-28.044l-1.275,0q0,1.273,0,2.549c-1.023,1.3-.452.35-1.27,2.55l-1.275,0-0.006-3.823C608.176,555.148,608.694,555.312,607.764,553.539ZM53.419,555.761c-12.237,7.891-34.682,6.339-48.406,11.552a42.824,42.824,0,0,0,.015,8.92c3.143,1.948,2.9,2.915,7.653,3.81,6.786-4.423,45.53-10.2,56.052-11.565,1.13-3.423,1.3-3.3,3.814-5.1l0-1.274-8.921.015c-6.227-3.686-14.425,3.374-20.39.035,9.758-.714,19.45-2.529,31.855-2.6l2.544-2.553q0-.638,0-1.275ZM154.411,741.645c-15.246-1.52-37.92-3.14-45.883-3.744-1.211-4.783-2.456-7.154-2.573-14.014,4.45-4.4,4.4-6.437,14.007-6.4,5.248,3.266,15.7-.285,22.941,1.235,14.694,3.088,35.5,3.227,50.981,3.736,5.5,0.181,17.789.759,19.115-.032,7.327-2.337,17.921-11.937,20.357-19.15a23.337,23.337,0,0,0-7.648-1.262c-5.761,3.886-15.154,1.973-22.932,3.863C158.45,716.65,115.254,692.7,105.844,658.9c-5.341-19.186,5.114-32.959,7.566-47.165-11.952-2.972-16.835-11.667-24.246-19.074-0.187-4.678-.573-11.309,1.25-14.02,3.114-9.117,17.411-18.811,26.724-21.71q0-.638,0-1.274l-34.408.059c-1.761,4.88-8.583,15.152-12.713,17.862-2.614,1.716-4.578.26-6.367,2.56C54.11,588.387,48.7,607.586,44.616,624.591c-5.259,21.879.784,48.38,6.481,63.708C69,736.485,101.556,762.961,155.742,774.777c35.943,7.837,64.327-12.336,85.35-19.262q0,0.638,0,1.275l-1.272,1.276c-9.617,5.7-21.547,11.885-33.108,15.349-12.815,3.84-32.88,5.786-47.147,2.629-8.4-1.858-14.305-.148-21.668-2.511-44.8-14.378-73.122-41.892-89.351-85.23-6.618-17.673-11.29-47.259-5.217-70.081,4.252-15.98,11.579-30.6,19.041-43.361l-5.1.009a25,25,0,0,1-5.093,2.557C46.713,588.8,40.766,601.339,36.952,614.41c-3.659,12.542-4.43,36.038-1.189,49.7,2.529,10.662,1.645,18.6,5.145,28.027,14.4,38.789,44.053,68.452,81.7,83.969,36.108,14.881,86.89,7.788,114.677-9.117,9.634-5.861,23.178-10.114,28-20.438l-10.195.018c-2.91,4.214-8.278,7.591-12.726,10.216q0-1.274,0-2.548l8.91-6.387,0-1.275-6.371.011c-5.549-3.42-16.642.37-24.215-1.233-19.457-4.117-43.559-3.809-65-3.712,0-4.03,2.156-1.717-1.281-3.821ZM127.332,555.634c-9.139,8.054-27.327,12.025-33.094,23-7.2,13.688,16.6,30.681,22.988,29.272,4.172-2.579,7.844-5.634,8.9-11.485-9.787-13.7,7.37-32.831,12.674-40.8Zm17.841-.03c-3.5,4.577-27.085,32.38-12.674,40.8,8.211-9.089,1.627-9.615,6.339-19.126,3.272-6.6,13.052-17.843,20.355-20.425q0-.636,0-1.274Zm409.07-.7c-5.482.632-15.11,3.353-19.105,6.4-1.334,1.976-1.3,5.208-1.259,8.922a27.392,27.392,0,0,0,8.923,1.259c1.5-4.586,1.915-4.664,7.637-5.11,2.387,3.38,23.076,10.04,24.228,8.879a15.137,15.137,0,0,0,6.357-8.931l1.274,0-1.276-1.272c-4.091-3.873-11.841-7.314-17.857-8.89-0.418,6.139-.26,5.9-6.361,6.383L554.251,560Q554.248,557.455,554.243,554.905Zm6.374,1.264c-4.134,1.062-1.948-.622-3.819,2.555l3.825,1.268Zm38.231-.066c1.027,1.3.452,0.349,1.278,2.547l-1.274,0Q598.849,557.377,598.848,556.1Zm101.948-.174c1.1,2.4.606,0.94,0.007,3.823l-1.274,0Q700.162,557.842,700.8,555.929Zm100.677,1.1,14.068,29.287,2.549,0q0-1.273,0-2.548c-5.944-6.4-9.242-18.3-12.789-26.74Zm-424.284,46.6c-0.205,6.053.016,10.875,2.573,14.014q-0.651-8.282-1.3-16.565l-5.1.009a23.338,23.338,0,0,1-1.288-7.644c12.876-7.148,10.241-19.309,24.172-24.254,11.194-3.974,32.286.727,36.965,5.034,1.282,1.18,1.095,4,2.557,5.093,1.377,1.029,1.8,1.994,2.549,0l1.272-1.277c-4.312-2.734-8.262-8.2-12.761-10.173l-14.02-1.25c-4.914-3.035.721-5.541-10.206-6.354-5.562,9.713-8.8,5.589-16.547,11.5-5.433,4.144-3.688,10.6-7.618,16.58-1.88,2.863-5.638,1.315-7.637,5.11-1.221,1.809-1.237,4.174-1.261,7.649l3.825,1.268C374.733,603.321,374.57,603.13,377.189,603.633Zm219.116-43.7c1.027,1.3.453,0.348,1.279,2.546l-1.274,0Q596.307,561.206,596.3,559.931Zm98.126-.168c1.027,1.3.453,0.348,1.279,2.547l-1.275,0Q694.434,561.037,694.431,559.763Zm-290.552,1.771a24.88,24.88,0,0,1,2.557,5.093l-5.1.009C402.237,563.643,402.64,563.786,403.879,561.534Zm201.349-.344c1.027,1.3.453,0.348,1.279,2.546l-1.275,0Q605.231,562.465,605.228,561.19ZM36.865,563.435c2.967,0.244,3.6.239,5.1,1.266C39,564.457,38.363,564.461,36.865,563.435Zm656.3-1.121c1.1,2.4.606,0.94,0.007,3.823l-1.275,0Q692.528,564.227,693.161,562.314Zm96.852-.166c-3.477,3.4-6.354,2.9-7.631,8.934,6.9,5.341,13.36,16.628,17.882,24.182l1.272-1.276c3.237-1.646,3.658-1.405,5.089-5.106-5.248-5.661-10.656-18.884-12.789-26.74ZM31.77,564.718c2.646,0.47,2.453.3,3.825,1.268C32.949,565.516,33.142,565.682,31.77,564.718Zm319.869,2c0.647,2.314-12.386,22.761-15.242,29.337-8.343-3.5-23.985-6.643-30.607-12.691,9.693,0.241,23.3,6.937,28.045,5.049A153.333,153.333,0,0,0,351.639,566.72Zm151.651,1.016a16.172,16.172,0,0,0,1.283,5.1,23.341,23.341,0,0,1,7.644-1.287l-0.009-5.1-2.548,0C508.012,567.571,506.518,567.6,503.29,567.736ZM517.334,583c3.877-.1,3.5-0.969,5.1-0.009l1.274,0c-1.956,5.018-.377,21.557-1.235,22.941-2.922,3.711-5.161,2.953-6.357,8.931l2.549,0c3.7-2.562,11.354-.924,15.292-0.026-0.829-9.3,1.564-36.148-2.631-48.422l-8.916,2.564q0,3.186.011,6.372c1.027,1.3.452,0.349,1.278,2.547l-6.369,1.285Zm173.285-16.863c1.027,1.3.453,0.349,1.279,2.547l-1.275,0Q690.622,567.417,690.619,566.141Zm-526.307,3.448q-0.633,1.913-1.268,3.825l3.823-.006q0.635-1.913,1.268-3.825Zm383.583-.655c-2.289,6.186-.823,14.093,1.307,19.113l1.274,0q-0.015-8.919-.03-17.841Zm-140.178,1.514c-2.747,1.621-7.491-.079-11.467,1.294-7.766,2.681-12.19,10.149-13.985,19.139l22.938-.039c5.108-3.326,20.4-1.478,28.034-1.322q0-1.275,0-2.549c-1.931-2.385-3.628-6.342-5.113-8.912l2.549,0q0,0.636,0,1.274c2.574,2.9,2.916,8.1,6.389,10.184l-0.006-3.823c-1.412-1.761-1.91-3.658-2.56-6.367C426.316,573.917,422.587,570.324,407.717,570.448Zm68.838,12.626,8.92-.015q0.01,5.733.02,11.469c10.178,2.746,9.849,11.882,19.139,13.985q0.006,3.823.013,7.646c5.118,1.918,5.643,3.775,14.025,3.8q0-1.273,0-2.548l-5.1.008q-0.023-13.378-.046-26.761c-7.325.262-12.188,3.833-15.288,2.575l-3.825-1.268c0.321-6.731,1.625-19.008-2.586-21.66-4.6,2.98-13.649,1.608-16.556,6.4C476.39,578.352,476.414,579.846,476.555,583.074Zm22.916-12.783q0.019,10.831.037,21.664l1.275,0,0-1.274c2.357-3.587,1.415-13.367,1.242-19.118ZM553,572.748q0.645,4.459,1.289,8.919l3.826,1.267c2.6,2.207,7.914,3.8,10.2,2.532,1.605-1.734,1.736-2.257,2.54-5.1-3.422-.79-5.572-1.775-7.653-3.81,4.442,0.571,5.1,1.529,8.925,2.533q0-.636,0-1.274C566.22,575.117,561.755,572.953,553,572.748ZM394.98,574.293c2.646,0.469,2.453.3,3.826,1.267-3.015,2.16-5.252,6.049-3.808,8.927,6.055,3.605,18.685.06,24.219,3.782l-34.408.059q0-1.275,0-2.549C388.307,581.678,391.386,578.125,394.98,574.293Zm109.595-.188q0.007,4.461.016,8.921l6.371-.011a20,20,0,0,0,1.264-6.374c-2.114-1.424-.785-0.122,0-2.549Zm30.585-.052q0.006,3.823.013,7.646l7.646-.013q-0.006-3.822-.013-7.646Zm25.489,1.231,2.549,0q0,0.636,0,1.274C560.964,575.754,561.962,576.31,560.649,575.284Zm181.082,71.055c9.518-.394,26.893-3.9,33.118-8.977,3.822-5.611,3.128-14.169,6.337-20.4,2.959-5.749,9.1-10.125,11.441-16.586l-1.275,0c-2.172-7.415-12.027-22.916-19.159-25.454C757.018,598.131,742.017,605.823,741.731,646.339Zm-272.82-61.978q-0.007-3.822-.013-7.646c-6.189-.072-14.254,1.1-16.558,5.126l2.548,0C458.494,586.562,462.459,585.343,468.911,584.361Zm122.325-7.855c-0.678,9.928,9.887,16.48,10.256,35.665l-6.363,5.108c0.433-15.976-3.223-21.783-8.973-30.569l-1.272,1.276c-12.684,9.873-.56,16.38-7.6,28.049,0.2-6.151-.018-11.911-2.575-15.288l1.3,17.839c2.661,0.432,8.212,1.148,10.2,2.531,1.227,1.805,1.251,4.17,1.287,7.644,2.129,3.6.549,3.683-1.263,6.374,6.263,0.441,6.8,2.261,11.476,3.8,0.143-4.48.279-15.759,2.516-19.12,0.39,10.437,4.355,29.262,6.424,30.574,1.652,1.115,3.145,1.134,6.374,1.263,0.988-2.858,1.289-6.923,1.255-11.471-2.341-3.734-4.525-23.052-5.146-28.027l1.275,0q0,1.275,0,2.549c4.517,5,7.259,15.572,8.96,22.923l1.274,0q-0.006-3.822-.013-7.646c-3.214-5.038-2.66-12-5.128-17.832C610.488,600.292,601.6,583.264,591.236,576.506ZM229.32,578.4c2.9,1.867,3.839,2.673,5.108,6.363l-1.274,0-1.277-1.272C230.648,581.243,230.272,581.353,229.32,578.4Zm242.128-.414c-0.111,11.749-.614,25.951,1.336,35.68l2.548,0q-0.029-17.2-.058-34.408ZM252.354,634.431c-0.024-12.084-5.2-34.75-14.083-38.206-8.913-5.887-43.547-7.447-56.092-11.374-3.953-1.238-14.454-2.054-15.294-1.248-2.553,1.784-2.63,1.72-3.814,5.1,21.021,0.548,36.521,13.108,44.648,26.685q2.562,7.641,5.123,15.284l17.841-.031C235.174,633.528,246.537,633.813,252.354,634.431Zm185.968-52.566,1.287,7.644c7.3,0,8.454.678,8.934,7.631-3.079,1.665-3.607,2.3-8.917,2.564-0.275,6.4-.217,10.53,3.845,12.737q0-.638,0-1.275c2.5-2.666,9.665-13.839,10.165-17.858,2.235-1.82-7.994-9.211-10.215-11.452Zm-368.288,1.9c1.027,1.3.453,0.349,1.279,2.547l-1.274,0Q70.036,585.044,70.034,583.768Zm-1.27,2.551c1.193,2.425.486,1.489,0.009,5.1l-1.274,0A16.147,16.147,0,0,1,68.763,586.319Zm414.168-.707-6.372.011q0,1.273,0,2.548c3.676,6.047-1.152,20.755,2.6,26.757-0.127-3.937-.193-8.066,1.257-10.2a32.824,32.824,0,0,0,2.57,12.74l1.275,0q-0.021-11.467-.04-22.938C482.88,592.558,482.9,589.326,482.931,585.612Zm71.364-.122c-0.193,3.122,5.807,4.635,11.478,5.078q0-.637,0-1.275Zm-85.36,12.889q-0.011-5.734-.02-11.469c-5.88.271-8.854,1.7-11.461,5.117-1.405,1.766-1.9,3.665-2.537,6.376Zm358.078-10.806c-2.537,1.878-5.922,2.318-10.191,2.566q0,1.274,0,2.548c3.739,2.925,6.336,8.8,7.67,14l1.275,0,5.065-19.124Zm15.292-.027c-0.3,6.031-1.938,10.583-3.8,15.3,31.607-.592,55.037,29.515,40.884,61.1-3.628,8.1-11.887,12.015-17.811,17.871l-2.548,0,0-1.275,1.275,0c5.988-8.239,13.4-13.955,16.523-25.515,6.227-23.049-22.784-56.3-38.314-48.361-1.4,1.766-1.9,3.665-2.537,6.377,35.353-.895,48.329,41.77,23.04,59.855-16.926,12.105-41.061,4.109-49.717-10.11-3.267-5.366-1.792-14.646-5.132-20.381-3.984,2.7-11.385,2.3-15.284,5.124-1.9,1.98-.987,2.344-3.817,3.829l-1.272,1.277-0.006-3.823-3.823.006c1.253,28.88,21.277,48.1,44.7,54.722,15.311,4.331,42.824-.779,47.132-11.55,3.6-4.177.017-9.065,2.522-15.3,2.3-5.713,9.164-10.85,11.439-17.86,3.437-10.593-.866-21.942-2.6-29.306-1.462-6.215,4.492-7.289,3.8-12.75C884.8,599.712,861.714,587.8,842.305,587.546ZM66.223,591.421c1.269,2.643-8.215,38.424-10.114,47.169-9.656,44.457,27.366,96.109,51.16,108.233q0,0.638,0,1.275l-2.549,0c-6.752-6.768-16.442-10.83-22.969-17.8-18.158-19.395-38.811-59.647-28.21-101.9C56.857,615.189,62.96,603.537,66.223,591.421Zm373.388-.638c-10.979,6.706-36.223-4.158-47.147,2.629,2.967,0.244,3.6.24,5.1,1.266-7.047-.187-19.51-0.556-24.209,2.59,3.957,2.118,8.271,2.656,15.3,2.523,12.232-7.351,46.262,3.223,56.065-3.919-7.314.217-21.916,1.933-26.763-1.229,8.914,0.148,21.231,1.023,28.033-1.322-1.3-1.023-.35-0.452-2.551-1.27C441.9,590.98,442.265,591.593,439.611,590.783Zm95.577-.163q0.022,12.742.044,25.487c-4.088,2.046-4.551,1.719-5.085,7.655l2.549,0c2.775-4,5.656-4.065,12.737-3.845,3.112-10.114,12.5-18.108,17.8-26.792l-3.826-1.268c-5.646-3.45-7.518,2.393-12.741,1.3C544.562,592.708,540.575,590.554,535.188,590.62ZM207.747,631.959c-1.634-23.312-31.917-47.4-61.234-38.126-18.982,6-32.043,21.942-36.885,42.117-6.792,28.3,18.137,53.907,34.51,59.836,22.939,8.307,51.1-5.912,56.037-20.486l1.272-1.276c-11.341-2.388-21.987-9.986-34.429-12.685-10.33-2.241-17.316,4.537-21.68-8.884-2.125-2.633-2.443-5.291-2.566-10.19,3.333-4.406,3.193-9.23,8.9-11.485,2.089-1.818,8.754-4.386,14.014-2.572,2.476,0.853,5.45,5.59,7.657,6.358C177.243,635.924,202.93,631.6,207.747,631.959ZM150.34,596.375c27.167-.785,50.565,9.536,52.305,33.044l-1.274,0q0-1.274,0-2.549c-6.686-7.142-10.569-16.393-19.153-21.631-20.579-12.559-48.8-.85-58.6,12.844-4.21,5.882-4.676,14.265-8.885,20.4q-0.006-3.186-.011-6.372c4.178-5.459,4.9-13.592,8.888-19.131C130.15,603.9,141.109,602.969,150.34,596.375ZM266.313,600a61.509,61.509,0,0,1-21.67-3.786q0,1.273,0,2.548c8.705,9.539,6.473,26.179,12.805,35.661,4.49,2.883,15.854,3.167,21.67,3.786q0-.637,0-1.275c-7.067-3.223-19.464-9.751-20.422-19.08C262.343,614.008,265.406,606.2,266.313,600Zm546.706,1.614-3.824.007c0.9-3.15.922-3.22-.01-6.372l-6.366,3.834,1.277,1.272c2.887,4.3,7.814,16.451,15.325,19.09q0-1.913-.007-3.823C816.18,612.312,813.842,607.247,813.019,601.614ZM26.729,597.86c2,2.327,1.127,1.777,5.1,2.54l0-1.274Zm475.359,11.932c-2.646-.47-2.454-0.3-3.826-1.268-3.529-3.626-6.786-7.8-10.214-11.452l-2.549,0q0.006,3.822.013,7.646c1.044,1.494,1.451,8.8,1.3,15.29a68.213,68.213,0,0,0,20.394,2.514q0-1.275,0-2.549C502.529,617.665,502.049,617.005,502.088,609.792ZM383.672,668.615l-1.287-7.644c-4.773-.759-14.489-3.322-17.852-6.341-5.075-4.556-6.382-17.2-14.044-15.269-5.392,1.578-7.858,4.292-10.18,8.938l-1.274,0q0-1.274-.005-2.548c3.3-3.064,8.486-8.409,10.173-12.761-5.946-4.482-11.2-12.968-14.052-20.366l-1.29-8.919c-1.362-2.255-5.289-3.433-6.376-2.537-5.6,3.35-9.318,6.916-17.828,7.676-5.62-4.979-18.806-8.309-26.779-10.149-1.433,5.642-4.043,7.752-5.074,14.027,10.722,12.882,12.653,18.8,29.356,26.711l0,1.275-2.549,0c-4.724-4.408-33.84-23.553-39.549-25.42-0.8,2.237-.244,1.239-1.27,2.551,0.808,2.234.248,1.238,1.279,2.547,7.183,10.755,22.634,16.653,34.447,22.879C317.956,652.989,351.342,665.111,383.672,668.615Zm95.457-70.253c0.961,1.365.769,1.2,1.281,3.821l-1.274,0Q479.133,600.274,479.129,598.362ZM381.015,604.9c-0.268,9.727-1.517,24.576,2.6,30.581-0.2-5.453-.973-14.511,1.244-17.844,3.784,3.823,11.789,4.947,16.569,1.246,7.538-2.721,5.861-10.164,11.446-14.037,5.908-4.1,10.126-.895,15.283-5.124-13.684,1.582-31.479,1.341-47.149,1.355q0,1.275,0,2.549c5.192-.2,13.447-0.839,16.569,1.246Zm57.361,8.823q-0.01-6.372-.022-12.744l-2.548,0c0.917,2.962,1.174,4.206,1.291,10.192-15.858,3.277-34.543,16.854-36.9,33.2l2.549,0C406.341,630.641,423.294,615.9,438.376,613.724Zm8.916-2.564c7.951-.135,16.835.01,22.941,1.235q-0.011-5.735-.02-11.469c-7.225-.105-14.958.195-20.387,1.309C448.894,606.09,447.968,606.733,447.292,611.16Zm333.926,24.917,3.823-.007c1.516-13.711,10.562-17.783,12.694-29.332l-1.277-1.272-2.546,1.279C789.124,616.231,782.306,622.461,781.218,636.077ZM978.7,607.7c0.254,2.966.252,3.6,1.283,5.1a16.154,16.154,0,0,1,1.266-5.1ZM82.825,611.782c0.96,1.366.768,1.2,1.281,3.821l-1.274,0Q82.828,613.694,82.825,611.782Zm716.193,0.051c-3.707,7.61-8,13.242-10.156,22.956l2.549,0c4.065-2.876,12.516-4.006,17.832-5.128q0.635-1.913,1.268-3.825l-1.274,0A28.555,28.555,0,0,0,799.018,611.833ZM81.557,615.608c3.432,6.421-5.522,29.732-2.475,43.332,3.165,14.124,8.283,25.888,11.535,38.212l-1.274,0q0-.637,0-1.275C72.291,677.948,78.175,641.265,81.557,615.608Zm364.47,0.651-15.284,5.124a63.491,63.491,0,0,0-27.975,35.73c-10.141,34.578,25.886,76.8,62.559,67.434,29.681-7.581,60.9-44.527,38.091-81.624C492.485,625.141,475.743,615.6,446.027,616.259Zm-40.776,2.619q-0.633,2.55-1.265,5.1l1.274,0c1.221-2.252,1.6-2.144,2.54-5.1Zm115.967-.2q0.011,6.371.022,12.743l2.549,0,5.088-5.106q-0.006-3.823-.013-7.646Zm43.328-.074q0,1.274,0,2.548l1.274,0q0-1.274,0-2.549Zm275.262-.471c-1.991,2.3-2.5,1.638-3.814,5.1l-1.272,1.277c14.887-.207,17.135,5.7,24.234,12.7,0.811,9.5-.4,13.742-2.511,21.669-21.484,14.448-26.846,7.5-39.521-8.853l0,1.274c-0.956,1.369-.765,1.206-1.268,3.825,4.352,4.778,6.8,13.022,10.221,15.275,12.926,12.388,35.4-3.164,39.483-12.811,2.966-7.017,1.65-12.7,1.24-20.392-5.465-5.986-6.612-13.6-15.321-16.54C848.441,618.387,845.164,618.13,839.808,618.135Zm-392.5,1.945c31.673-.96,48.684,10.337,57.4,31.761,7.355,18.075.055,43.419-11.382,50.994l-1.272,1.277q0-1.275,0-2.549c5.618-4.292,6.431-10.152,8.89-17.856,9.292-29.108-11.629-53.048-33.235-59.838-9.551-3-26.374,2.64-31.859.054l2.548,0C440.628,622.226,445,621.773,447.307,620.08Zm-94.3,2.71q0,1.275,0,2.549l2.549,0q0-.638,0-1.275ZM433.3,625.2l2.549,0q0,0.637,0,1.275C433.612,625.672,434.611,626.228,433.3,625.2Zm62.444-.107c2.519,3.625,3.846,3.835,10.2,3.806,3.83-2.21,10.24.008,12.737-3.845Zm326.236-.557q0,1.273,0,2.548l3.823-.006q0-1.275,0-2.549Zm12.748,2.527c-1.722,1.392-4.328,1.177-6.367,2.559-3.336,2.261-4.843,7.315-7.629,10.208a71.747,71.747,0,0,0,1.3,15.29c6.118,4.171,6.7,7.585,17.855,7.616,2.688-4.329,7.259-4.9,10.179-8.938,5.556-6.434.608-22.378-3.864-24.206C843.359,627.316,840.082,627.059,834.726,627.065Zm-333.878,3.119,7.666,11.456,2.548,0c2.795-3.659,7.876-3.689,10.182-7.664a14.765,14.765,0,0,1-2.555-3.819ZM215.411,642.141c-0.369,7.351-4.578,18.742-2.51,22.943,3.4,2.677,33.46,12.348,34.428,11.41,3.332-4.1,7.951-24.4,5.047-29.319-4.439-2.708-13.48-.97-17.848-3.793-1.027-1.3-.453-0.348-1.278-2.546l5.1-.009c10.614,6.563,31.024,2.2,43.339,6.3-4.276-4.563-11.938-3.183-19.124-5.065-19.592-5.13-38.553-6.565-62.454-6.265l1.272-1.277c2.449-.992-2.551-1.27-2.551-1.27-4.992,7.483-21.8,2.765-29.3,7.7,8.48-.114,20.3,2.571,26.763,1.228,8.111-1.686,9.26-3.111,17.841-.03,0.606-3.727,7.69-2.838,15.288-2.575l1.277,1.272-1.272,1.277C226.932,643.5,220.943,642.343,215.411,642.141Zm230.644-9.315c22.3-.764,35.493,4.5,43.359,17.767,14.234,24.009-3.8,51.721-24.115,57.388-26.023,7.259-54.469-20.084-47.23-45.8C422.957,644.82,433.529,642.314,446.055,632.826Zm104.5,1.1c0.113,3.951.76,5.126,0.01,6.372-0.981.87-2.841,1.676-3.818,2.555,12.235,0.26,34.17,2.712,42.049-2.621-10.133-.2-18.1.168-33.133,0.057l-1.281-3.821,21.664-.037s0.257,4.98,1.279,2.547q0-1.275,0-2.549c1.022-1.3.451-.35,1.27-2.551l-21.665.037C554.239,635.453,554.084,634.531,550.555,633.922Zm252.325,0.843c-8.263,5.49-21.438,4.518-31.846,7.7-20.445,6.252-43.439,11.745-63.687,17.95-10.408,3.189-24.212,2.825-31.844,8.975l3.823-.007,126.105-33.349q0-.636,0-1.274Zm31.859-.054c3.466-.015,5.859.039,7.649,1.261,3.422,1.13,3.3,1.305,5.1,3.814,7.29,8.551-1.624,17.11-12.716,16.589-5.83-5.675-8.911-8.681-5.128-17.832A23.012,23.012,0,0,0,834.739,634.711Zm144.005,1.028c1.3,1.023.35,0.452,2.551,1.27C979.992,635.987,980.945,636.557,978.744,635.739Zm-615.51,4.875q0,1.911.007,3.823c2.3,1.675,2.956,4.837,5.108,6.363,5.557,3.94,13.634,3.689,17.857,8.89,2.577,3.227,3.522,8.606,3.847,14.011-14.482-.325-26.406-4.534-39.516-6.3q0,1.275,0,2.549c3.623,5.185,1.618,24.138-1.227,28.038,0.411-11.754,1.119-26.576-5.151-31.85l-1.277-1.273q0,1.275,0,2.549c5.57,8.6.284,30.167,0.07,40.78l1.277,1.272c6.137-.011,14.274.9,17.847,3.793-4.074,1.125-3.542,1.446-3.819,2.555,2.392,2.023,7.435,3.351,8.925,2.533,2.1-2.284,2.219-3.2,2.536-7.65-6.612-4.338-8.472-28.963-5.163-38.222a27.447,27.447,0,0,0,8.923,1.259,31.961,31.961,0,0,1,1.292,10.192c7.467-.1,16.969.809,17.843,1.244,4.7,6.674,5.6,15.295,10.232,21.647,7.4,10.146,20.354,14.332,29.349,22.888,2.234-.807,1.238-0.247,2.547-1.278l1.272-1.277c-33.254-15.347-33.432-27.113-40.9-67.471-4.562-2.748-12.524-6.4-16.584-10.167,8.024,0.861,13.251,4.591,19.128,7.614q0-1.275,0-2.549a24.943,24.943,0,0,0,2.54-5.1c-4.06-2.551-7.348-6.768-11.484-8.9C387.219,641.364,368.954,640.468,363.234,640.614Zm-56.071.1,2.548,0q0,0.637,0,1.275C307.477,641.18,308.475,641.736,307.163,640.71Zm-131.257,1.5c1.3,1.023.35,0.452,2.55,1.27C177.153,642.456,178.106,643.026,175.906,642.208Zm133.807-.228,2.549,0q0,0.637,0,1.275C310.028,642.45,311.026,643.006,309.713,641.98Zm-99.4,1.444-33.129,2.605a20.03,20.03,0,0,0-1.263,6.374c4.446,1.782,29.56,11.249,30.6,10.143C209.8,658.389,210.359,650.743,210.315,643.424Zm101.949-.174,2.549,0q0,0.637,0,1.275C312.579,643.72,313.577,644.276,312.264,643.25Zm2.551,1.27,2.549,0q0,0.638,0,1.275C315.129,644.99,316.128,645.546,314.815,644.52Zm314.767-.538c1.761,3.013,6.5,6.316,7.662,8.907,1.8,3.993-.6,9.769,1.3,12.742,0.8-2.237.244-1.239,1.27-2.551l0.009,5.1c-2.591,4.134-2.213,13.2-3.793,17.848l1.274,0q0-.638,0-1.275c4.8-6.652,6.985-34.337-.065-38.23C635.4,645.183,632.231,644.54,629.582,643.982Zm52.249-.089c1.078,3.042.515,2.1,2.555,3.818q0.639,0.636,1.277,1.273,0-1.275,0-2.549c-1.206-2.246-.281-0.015,0-2.549Zm-424.358,3.273c0.2,13.482-3.417,22.228-5.04,33.142,8.745,1.129,15.626,5.7,22.951,7.607l17.839-1.3c1.556-2.91,2.083-2.872,2.536-7.651,4.415-5.547,6.053-23.094,2.5-25.492C292.243,649.678,266.179,647.755,257.473,647.166Zm290.557,0.778c-1.521.993-6.133,1.536-7.642,2.562,12.506,0.259,35.236,2.845,43.324-2.623ZM952,648.528q0,1.275,0,2.549l1.274,0q0-1.274,0-2.549ZM426.97,650.7c-14.446,32.642,8.673,65.473,43.415,50.9q0-.638,0-1.274l-2.549,0c-18.237,15.191-58.2-20.587-42.123-40.707,0.807,2.233.248,1.237,1.278,2.546q0-1.273,0-2.549c-0.272-2.291,1.35-4.517,2.534-8.925Zm261.244-.446q0.009,5.1.017,10.194l2.549,0-0.009-5.1C689.943,654.252,689.06,651.342,688.214,650.254Zm-530.132,2.18c5.964,5.234,14.9,5.585,22.954,8.881,19.464,7.963,41.563,16.112,61.21,24.108,8.077,3.287,20.6,8.557,28.043,3.775-9.885-2.012-19.159-6.867-28.054-10.147Zm144.005,1.028c0.277,17.061-5.488,27.1-7.577,40.793l6.374,1.263,1.273-1.277c1.561-12.628,6.78-24.611,7.578-39.518l-2.549,0C305.682,653.707,305.042,653.746,302.087,653.462Zm151.649-.259c-1.5,1.025-2.141.989-5.095,1.283C438.047,667.227,433,685.073,457.618,687.6c5.626-3.853,10.256-2.988,12.726-10.217,4.127-5.064,1.493-10.776-.028-16.566-3.049-1.978-3.733-3.719-7.655-5.085C460.243,653.8,458.082,653.465,453.736,653.2Zm163.17,30.306,10.2-.018c1.368-3.987,1.339-10.724,1.246-16.568-1.34-1.973-1.322-5.2-1.289-8.919-2.646-.469-2.453-0.3-3.826-1.268-1.552-2.258-.022-2.229-1.281-3.821-1.919,2.371-3.532,2.192-5.088,5.107-4.445,5.825-7.1,17.831-8.877,25.5l5.1-.009c1.171-5.127,4.419-13.964,7.616-17.854Q618.8,674.585,616.906,683.509Zm169.44-29.6,2.549,0c2.572,21.169,18.951,36.29,37.028,41.99,6.644,2.1,19.717-.942,25.492,2.506-33.693,3.192-48.613-6.526-61.217-27.932C787.309,665.563,784.072,660.974,786.346,653.909ZM539.125,656.88c-0.982.871-2.841,1.676-3.819,2.555,11.6,0.217,41.6,1.784,48.421-2.631Zm-86.653,2.7a43.344,43.344,0,0,1,10.2,1.257c1.23,2.248,1.606,2.138,2.558,5.093,2.244,3.259.83,7.89,0.019,11.469-9.613,5.142-20.267,4.672-20.407-10.16C447.614,665.762,450.436,661.878,452.472,659.577Zm3.826,1.268q0,1.273,0,2.548c3.777,1.051,3.483.559,5.1,3.815,2.715,3.938.377,7.258-1.257,10.2l2.549,0q0-.636,0-1.274c2.254-2.449,2.408-4,2.533-8.925C462.071,664.313,460.807,662.8,456.3,660.845ZM332.687,662.33c-0.811,16.175-7.42,27.443-8.849,42.069l1.277,1.273c4.467,0.507,6.262,1.591,10.2,2.531q0-1.275,0-2.549c6.9-9.475,5.011-29.984,2.476-42.058Zm648.649-1.108q0,1.275,0,2.549l1.274,0q0-1.275,0-2.549Zm-433.278,3.289c-3.891,2.359-13.979.159-17.837,2.579,15,0.252,44.678,4.03,54.794-2.642Zm12.757,7.624c-6.11,3.793-22.465.365-29.306,2.6q0,0.637,0,1.275L557,675.965c9.574-5.785,30.664,2.055,39.5-3.891Zm129.985-.222c-3.438,13.23,11.713,46.083,17.936,56.042,3.017,4.827,8.019,8.178,10.219,14l1.275,0c-1.8-7.208-7.146-12.962-10.228-19.1-4.646-9.249-8.047-19.84-11.519-29.291C695.932,686.621,696.78,675.339,690.8,671.913Zm-93.027,1.434q0,1.274,0,2.548l1.274,0q0-1.274,0-2.549Zm-384.826,18.5,0.009,5.1-21.673-5.061c-3.8,1.045-8.833,6.046-12.731,7.668-3.359,1.4-6.428.718-8.916,2.564l2.549,0c7,4.731,41.84-.869,45.87-3.9-3.243-1.849-1.437.279-2.555-3.819l1.272-1.276c7.63,3.126,13.5,3.272,22.943,2.509q0.635-1.911,1.268-3.825c0.955-1.369.764-1.206,1.268-3.825l-2.549,0c-5.559-4.253-25.962-10.7-34.427-11.41-2.266,4.513-5.29,7.008-7.627,11.482l2.549,0C203.157,690.379,208.265,691.326,212.947,691.845Zm462.571-13.534c0.631,6.926,5.21,15.642,2.584,20.386q-1.927-8.918-3.854-17.835l-5.1.009c-1.206,15.895-2.977,44.037,11.55,47.132l1.272-1.277,3.786-21.671c-1.717-8.781-6.732-18.9-8.971-29.295l-1.274,0c-1.1.828-4,1.711-5.093,2.557Zm-136.352,2.782c-4.814,2.921-16.885-.4-21.66,2.586,15.1,0.211,57.236,3.141,66.263-2.662Zm317.318,0.732,2.549,0q0,0.637,0,1.274C856.8,682.3,857.8,682.852,856.484,681.825Zm-249.766,5.524c-0.547,4.481-2.99,5.1,2.56,6.368,1.3-1.027.348-.453,2.546-1.279q0-.637,0-1.274l-1.274,0C609.137,688.166,609.322,688.9,606.718,687.349Zm-87.929,1.425c-1.283.885-5.093,1.649-6.367,2.56,11.448,0.179,52.916,1.009,58.616-2.649Zm-271.437,1.738q-0.633,1.913-1.267,3.825l3.823-.006c0.981-.871,2.841-1.676,3.818-2.556Zm43.329-.074-1.272,1.276c-2.45.993,2.55,1.27,2.55,1.27C291.152,690.751,291.712,691.747,290.681,690.438Zm-14.014,2.573c-0.981.87-2.841,1.675-3.819,2.555l2.549,0c4.289,3.171,9.756,2.81,15.3,5.071,22.286,9.084,47.9,18.469,72.68,24.089-6.812-5.913-17.715-6.43-26.779-10.15C318.725,707.237,298.1,695.036,276.667,693.011Zm-15.288,2.574c-4.049,2.776-13.22,3.5-19.109,3.856q0,0.637,0,1.275l2.549,0c7.358,5.052,28.641,9.161,38.251,11.4,1.179-3.913,2.638-4.783,3.807-8.927C277.105,702.06,270.722,697.152,261.379,695.585ZM90.617,697.152c1.027,1.3.453,0.348,1.279,2.546l-1.274,0Q90.619,698.427,90.617,697.152Zm760.793-1.3c2.646,0.469,2.453.3,3.826,1.268C852.59,696.65,852.783,696.815,851.41,695.852ZM91.9,699.7c1.027,1.3.453,0.349,1.279,2.547l-1.274,0Q91.9,700.972,91.9,699.7Zm447.3-.764c-6.7,4.156-24.349.152-31.854,2.6q0,0.637,0,1.274c7.534,0.324,3.647,1.345,7.65,2.536,5.4-7.807,45.7.306,54.787-6.465Zm140.18-.24c1.027,1.3.453,0.349,1.279,2.547l-1.275,0Q679.379,699.969,679.376,698.694Zm1.279,2.547c1.027,1.3.453,0.348,1.279,2.547l-1.275,0Q680.658,702.515,680.655,701.241Zm-586.2,2.276c1.027,1.3.453,0.348,1.279,2.546l-1.274,0Q94.453,704.791,94.451,703.517Zm144.005,1.028c-4.436,7.024-11.5,14-19.085,17.874q0,0.638,0,1.274l14.018-.024c4.719,2.983,31.718,2.587,39.51,2.482,2.29-3.616,4.854-5.586,6.354-10.206l-1.276-1.272C264.046,713.893,251.523,707.571,238.456,704.545Zm50.974-.087c-3.664,7.861-9.953,13.422-12.706,21.686l2.548,0c1.5,1.02,2.145.981,5.1,1.265,2.321-7.219,8.022-13.4,11.435-20.409A27.3,27.3,0,0,1,289.43,704.458Zm239.591,5.963-3.823.006q0,1.911.007,3.823c-4.147,2.616-7.15,6.192-12.731,7.668-8.064,2.133-20.367-1.456-26.757,2.6,16.076,0.734,33.158,1.731,42.056,1.2,18.768-1.116,35.677,3.144,40.76-11.539,0.955-1.369.764-1.206,1.268-3.825-5.886-.668-39.512-3.756-39.512-3.756C529.333,707.964,529.525,707.8,529.021,710.421Zm151.643-4.083c1.027,1.3.452,0.349,1.278,2.547l-1.274,0Q680.665,707.614,680.664,706.338Zm-180.953,4.133c-2.274,3.574-5.022,6.853-8.912,5.112-0.637,4.065-1.1,3.723-2.538,6.377l2.549,0c4.115-2.54,24.214-4,29.3-5.147,1.222-2.253,1.6-2.145,2.54-5.1l1.273-1.277Zm76.468,3.692c-4.266,29.615-42.9,35.461-76.414,28.167l-25.487.043c-33.21-7.224-75.962-2.593-109.608-7.459-6.488-.938-21.14.546-29.313-1.224l-24.212.041c-13.633-2.928-32.255-.8-45.884-3.744l-22.938.039c-4.781-1.026-27.01-3.97-31.864-2.494-2.29.7-4.341,2.978-7.639,3.836q0,1.273,0,2.548l24.213-.041c5.564,3.409,16.633-.376,24.215,1.233,14.326,3.041,31.354-.881,47.155,2.468,37.689,7.989,82.125-.588,119.8,7.442l47.154,1.194c6.151,1.434,7.645,5.909,11.482,7.626,2.9,1.3,12.253.872,14.02,1.251l24.213-.042c25.308,5.315,57.317-2.612,63.684-20.5l-2.549,0c-3.625,5.8-22.278,19.881-31.835,14.072,20.612-1.014,30.946-15.442,34.353-31.917,3.491,0.729,5.906,1.934,8.921-.016a20,20,0,0,0-6.374-1.263C579.774,714.408,579.134,714.447,576.179,714.163Zm-258.693,1.716-2.536,7.651,12.744-.022c0.8-2.237.243-1.238,1.27-2.551q0-1.274,0-2.548l-2.548,0C323.993,716.479,321.833,716.141,317.486,715.879Zm-15.286,3.85q-0.633,1.912-1.268,3.825l1.275,0,0-1.275C303.785,720.278,303.021,721.626,302.2,719.729ZM532.879,730.8q0.006,3.186.011,6.372c3.084,1.654,3.615,2.289,8.925,2.533,11.117-7.059,22.409-5.28,26.729-19.161l1.272-1.277-1.274,0c-10.117,14.885-51.453,8.191-68.8,7.763-7.224-.178-20.636-1.642-25.485,1.318C496.807,728.175,511.761,729.9,532.879,730.8Zm244.658-11.887,3.825,1.267q0,0.638,0,1.275C778.318,720.391,779.267,720.951,777.537,718.917Zm-443.476,2.032c-0.016,4.487,2.522,4.2,10.2,3.805q0-.636,0-1.274ZM116.148,722.6c1.322,4.712-.1,9.488,2.568,11.465,1.218-.917,6.959-4.851,7.638-5.11,0.345-.133,49.58,1.614,53.527,2.457,2.958,0.632,11.677,2.771,16.569,1.246,2.308-.719,4.324-2.973,7.64-3.836l0-1.275Zm665.216-1.136,2.549,0q0,0.638,0,1.275C781.678,721.929,782.677,722.485,781.364,721.459ZM785.192,724l2.548,0q0,0.636,0,1.274C785.506,724.471,786.5,725.027,785.192,724Zm174.594,3.525q0,1.274,0,2.549l1.274,0q0-1.274,0-2.548Zm-45.873,2.627c1.587,1.994.819,0.649,0,2.549-2,2.681-4.015,3.969-7.637,5.11q0-.638,0-1.274l1.274,0Zm20.392,1.239c1.587,1.995.819,0.649,0,2.549l-10.177,10.212C926.137,738.284,931.117,736.117,934.305,731.392Zm-31.846,7.7,2.549,0q0,0.636,0,1.274C902.773,739.563,903.771,740.119,902.459,739.093Zm17.85,5.067c3.147,1.644.867-.548,2.553,2.544l-1.275,0c-4.531,4.818-12.3,10.572-19.093,12.776q0-1.275,0-2.549C908.888,754.058,916.519,749.7,920.309,744.16Zm-653.745,2.391q0,1.275,0,2.549l1.274,0q0-1.275,0-2.549ZM107.271,748.1l3.825,1.268q0,0.636,0,1.274C108.052,749.572,109,750.132,107.271,748.1ZM936.88,746.68q0,1.275,0,2.549l1.274,0q0-1.275,0-2.549Zm-36.937,11.533c1.587,1.994.819,0.648,0,2.549-6.189,5.856-20.11,10.662-30.565,11.521q0-.638,0-1.274l1.274,0C879.508,765.044,892.547,765.42,899.943,758.213Zm-632.079,3.628q0,1.275.005,2.549l1.272-1.276,1.274,0C269.112,762.089,270.065,762.66,267.864,761.841Zm653.76,6.53c-6.838,7.056-16.642,8.734-26.739,12.789-46.465,18.662-95.755,11.329-135.1-7.415q0,0.636,0,1.274l1.277,1.272c25.081,11.835,56.912,27.743,95.61,18.952,7.777-1.766,15.082,2.167,16.569,1.246l1.272-1.276a13.976,13.976,0,0,1-3.828-2.542c15.183-.694,45.862-14.991,52.208-24.3Zm-89.172,19.267c1.3,1.023.35,0.452,2.551,1.27C833.7,787.886,834.653,788.457,832.452,787.638Zm-655.011,7.491q0,1.275,0,2.549l1.274,0q0-1.275,0-2.549Zm248.544,25.063c0.723,10.921,7.371,19.694,11.517,28.016l1.275,0c1.407-10.2,6.884-15.111,7.6-26.774a22.572,22.572,0,0,1-5.1-2.54c5.715-.209,15.572-1.109,19.118,1.241-10.747.89-22.794,27.61-20.333,33.168,2.811,11.579,10.287,22.856,15.349,33.108l1.274,0c3.029-23.079,21.047-39.5,22.83-63.758l-3.826-1.268c-1.286-.88-5.1-1.631-6.376-2.537,7.046-.217,20.862-1.8,25.49,1.23-15.056,1.676-14.252,13.72-19.072,25.52-6.9,16.895-14.436,34.953-21.575,52.286-2.237-.8-1.239-0.244-2.551-1.27-7.549-8.223-11.687-24.135-16.626-34.379l-1.274,0c-1.745,13.344-10.436,22.43-12.683,35.7l-3.823.006-33.259-73.856c-1.867-2.54-6.447-3.142-8.93-5.082,7.046-.217,20.862-1.795,25.49,1.231-6.184.388-6.685,0.743-7.635,6.384,4.56,5.913,5.7,13.01,8.955,20.375,5.678,12.862,13.387,25.937,19.183,39.472,1.022-1.3.452-.35,1.27-2.55,5.416-5.961,9.872-19.013,10.145-29.328-7.1-7.76-7.935-20.413-14.068-29.286-2-2.9-6.235-4.083-8.932-6.357,5.979-.211,16.632-1.245,20.392,1.239ZM121.439,836.005c10.79,5.59,35.7,2.642,50.979,2.461a14.759,14.759,0,0,1,3.818-2.555l0.024,14.018-1.272,1.277-1.274,0c-0.272-6.42-1.393-8.489-6.389-10.184-3.557-2.449-10.22-.858-14.018.024q0,1.274,0,2.548c-3.811,5.911-1.457,44.847.089,52.249,2.661,0.432,8.213,1.148,10.2,2.531-8.123.221-25.08,2.351-30.587-1.222,6.094,0.156,8.182.222,10.188-3.84,3.811-5.911,1.458-44.846-.089-52.249-3.4-1.171-8.836-1.324-14.02-1.25-1.3,1.027-.349.453-2.547,1.278-2,3.656-3.676,10.221-6.348,14.029Zm184.784,0.958c34.586-1,45.941,38.771,21.76,56.035-26.31,18.785-52.126-.567-51.031-33.046,7.5-8.561,8.587-18.316,22.9-20.429q0,0.637,0,1.274l-2.549,0c-18.512,18.485-18.249,57.192,19.212,56.039,2.9-2.267,8-3.467,10.184-6.389,4.5-6.015,8.679-26.1,2.49-34.412A24.073,24.073,0,0,0,312.6,839.5c-4.51-1.26-9.656.584-12.746-1.252C303.081,838.149,304.59,838.087,306.223,836.963Zm-85.377,2.7c1.106,8.04,5.593,11.829,7.678,19.1l1.273-1.276c3.684-3.947,5.012-10.309,5.067-17.85-2.237-.8-1.239-0.244-2.551-1.27,4.934-.2,12.379-0.705,15.294,1.248-10.945,1.066-15.943,14.546-16.523,25.516,4.819,5.106,9.53,15.569,11.508,22.919l1.273-1.277c5.779-7.565,14.805-33.89,15.214-45.9a22.551,22.551,0,0,1-5.1-2.54c5.715-.208,15.572-1.109,19.117,1.242-15.187,1.7-25.556,45.006-31.758,58.675l-2.549,0c-2.276-10.5-8.694-16.849-11.515-26.742L226,872.783c-4.942,6.673-5.386,21.379-12.7,25.509l0-1.275c-14.789-16.3-15.539-43.649-33.233-58.564l19.115-.032q0,0.636,0,1.274c-2.787,1.15-1.837,1.1-3.818,2.555,1.6,7.953,17.659,41.934,23.014,44.564q0-1.275,0-2.549c3.652-4.489,6.027-11.613,6.339-19.126-7.562-8.256-9.326-19.374-17.887-26.731,5.453-.206,14.511-0.974,17.844,1.243ZM512.722,867.2l35.682-.061q-0.021-12.743-.043-25.487c-2.331-.974-6.859-2.248-8.927-3.808,7.314-.217,21.916-1.933,26.763,1.229-5.709.012-7-.039-8.914,3.838-3.81,5.911-1.457,44.846.09,52.249,2.607,0.444,7.06,1.2,8.925,2.534-7.314.217-21.917,1.933-26.764-1.229,12.655-.424,9.569-14.461,8.875-26.777l-35.682.061q0.019,12.1.041,24.213c2.153,1.064,7.919,2.247,10.2,3.806-7.583.218-22.971,2.072-28.038-1.227,4.4-.091,8.747.284,10.191-2.566q-0.045-26.123-.09-52.249c-2.014-1.009-6.874-2.341-8.927-3.808,7.314-.217,21.917-1.933,26.764,1.229-5.709.012-7-.039-8.914,3.838C511.057,847.438,512.544,860.376,512.722,867.2Zm107-29.493c0.2,4.934.706,12.38-1.248,15.295-0.667-13.579-12.373-15.835-25.509-12.7q0,1.273,0,2.548c-2.763,4.239-1.413,16.39-1.236,22.941a176.127,176.127,0,0,0,22.937-1.314q0,2.549.008,5.1a206.244,206.244,0,0,0-22.94-1.235q0.021,12.1.041,24.213l3.825,1.267c4.178,2.846,14.706.973,19.116-.032,2.522-4.05,5.675-10.11,8.9-14.033q-0.621,8.92-1.244,17.843c-9.958.193-42.508,2.581-48.427-1.192l2.548,0c1.873-1.392,6.572-1.684,7.64-3.836q-0.042-24.848-.085-49.7c-1.027-1.3-.453-0.349-1.279-2.547-2.607-.443-7.06-1.195-8.925-2.533Zm59.9-.1c0.2,4.934.706,12.379-1.248,15.294-0.667-13.578-12.373-15.834-25.509-12.7q0,1.275,0,2.549c-2.763,4.238-1.413,16.39-1.236,22.941a176.3,176.3,0,0,0,22.937-1.314q0,2.548.008,5.1a206.228,206.228,0,0,0-22.94-1.236q0.019,12.107.041,24.213l3.825,1.268c4.178,2.846,14.706.973,19.116-.033,2.522-4.049,5.675-10.109,8.9-14.033q-0.621,8.921-1.244,17.843c-9.958.194-42.508,2.582-48.427-1.191l2.548,0c1.873-1.391,6.571-1.683,7.64-3.836q-0.042-24.847-.085-49.7c-1.027-1.3-.453-0.348-1.279-2.546-2.607-.444-7.06-1.2-8.925-2.534Zm65.095,59.784c-10.544.193-45.987,2.8-52.251-1.185l2.549,0c1.872-1.392,6.571-1.683,7.639-3.836q-0.042-24.847-.084-49.7c-1.027-1.3-.453-0.348-1.279-2.546-2.607-.444-7.06-1.2-8.925-2.534,7.583-.218,22.971-2.072,28.038,1.227-4.4.088-8.748-.282-10.19,2.566q0.043,25.484.087,50.974l3.825,1.268c6.066,4.114,19.3.065,24.211-1.316l6.352-11.48Q744.694,889.1,744.708,897.384ZM796.855,837.4c0.195,4.933.7,12.379-1.249,15.294-0.667-13.578-12.372-15.835-25.509-12.7q0,1.273,0,2.549c-2.762,4.238-1.413,16.389-1.235,22.94A176.309,176.309,0,0,0,791.8,864.17l0.009,5.1a206.263,206.263,0,0,0-22.941-1.235q0.021,12.1.041,24.213l3.826,1.268c4.177,2.846,14.7.973,19.115-.033,2.522-4.049,5.675-10.11,8.9-14.033q-0.622,8.921-1.244,17.843c-9.959.193-42.509,2.581-48.428-1.192l2.548,0c1.873-1.392,6.572-1.683,7.64-3.836q-0.042-24.848-.085-49.7c-1.027-1.3-.453-0.349-1.279-2.547-2.607-.443-7.059-1.195-8.924-2.533Zm31.913,31.8c-0.109,8.693-.063,18.686,1.318,25.485,2.607,0.444,7.06,1.2,8.925,2.534-7.583.218-22.972,2.072-28.038-1.227l8.918-1.289c4.4-13.23,1.319-36.509,1.185-52.251-2.609-1.255-7.337-2.446-8.929-5.083,14.448-.217,29.837.085,40.784,2.479,1.229,2.249,1.606,2.139,2.557,5.094,6.877,11.078-9.8,17.541-7.607,22.951,2.3,7.343,10.771,19.989,16.608,24.185,3.326,2.39,8.285,2.649,11.478,5.077l-15.292.027c-1.3-1.023-.35-0.452-2.551-1.27-1.148-2.065-17.373-26.463-17.887-26.731Zm0-2.549c4.427,0.16,10.236.409,12.741-1.3,3.419-1.141,3.3-1.316,5.091-3.832,7.006-8.422-.6-17.12-5.134-21.655a49.441,49.441,0,0,0-11.468,1.294q0,1.273,0,2.549C827.237,847.953,828.586,860.1,828.764,866.655Z"/>
</svg>
